<svg xmlns="http://www.w3.org/2000/svg" width="140" height="262" viewBox="0 0 140 262"><path fill-rule="evenodd" clip-rule="evenodd" fill="#F9F9F9" d="M140.003 7.731c-8.427 2.327-16.039 3.979-21.965 3.945a133.74 133.74 0 0 1-5.818-.172l7.256-7.301c5.401-.225 12.567-1.927 20.527-4.194v7.722zm0 16.401v7.73c-8.646 2.413-16.467 4.144-22.513 4.101-10.972-.066-19.275-1.421-26.259-3.343l6.12-6.156c5.584 1.224 12.07 2.013 20.178 2.066 5.648.028 13.583-1.856 22.474-4.398zm0 27.136v7.725c-8.327 2.291-15.843 3.913-21.701 3.887-20.818-.132-32.065-4.895-42.945-9.501-1.125-.473-2.249-.947-3.361-1.408l5.649-5.683c.196.066.393.158.576.237 10.683 4.514 20.766 8.789 40.12 8.895 5.482.037 13.106-1.726 21.662-4.152zm-21.007 29.94c5.34.035 12.718-1.643 21.007-3.975v7.719c-8.064 2.197-15.339 3.736-21.033 3.703-20.818-.132-32.077-4.882-42.958-9.487-7.193-3.053-14.059-5.961-23.63-7.461l6.329-6.368c7.911 1.776 14.123 4.395 20.178 6.96 10.67 4.526 20.766 8.79 40.107 8.909zm-6.054 24.51c6.615.042 16.336-2.526 27.061-5.727v7.76c-10.464 3.068-20.002 5.454-27.113 5.414-20.818-.132-32.077-4.882-42.932-9.487-7.937-3.356-15.418-6.513-26.573-7.869a80.705 80.705 0 0 0-14.541-.421l7.506-7.552c2.55.066 5.192.277 7.911.592 12.187 1.474 20.518 4.987 28.56 8.395 10.684 4.512 20.767 8.789 40.121 8.895zm-69.621 8.443c12.187 1.474 20.491 4.987 28.533 8.395 10.684 4.513 20.767 8.789 40.135 8.908 6.799.034 16.915-2.704 28.013-6.033v7.762c-10.837 3.209-20.741 5.76-28.066 5.718-20.819-.132-32.066-4.896-42.945-9.501-7.926-3.342-15.405-6.5-26.559-7.856-20.296-2.447-35.974 3.432-42.435 6.458l7.009-10.656c8.866-2.735 21.42-4.998 36.315-3.195zm-.365 24.286c12.187 1.474 20.504 5.001 28.56 8.396 10.671 4.526 20.766 8.789 40.107 8.908 6.881.045 17.138-2.748 28.379-6.131v7.767c-10.978 3.254-21.024 5.851-28.418 5.798-20.806-.119-32.066-4.869-42.945-9.475-7.911-3.355-15.405-6.526-26.559-7.881a80.826 80.826 0 0 0-23.709.67l-6.29-6.329a87.926 87.926 0 0 1 30.875-1.723zm32.903 35.314c10.672 4.526 20.767 8.789 40.121 8.895 5.973.048 14.508-2.057 24.023-4.831v7.744c-9.269 2.638-17.663 4.582-24.062 4.546-20.819-.132-32.078-4.882-42.959-9.487-7.911-3.355-15.405-6.526-26.547-7.869a71.179 71.179 0 0 0-2.196-.237l-7.743-7.789c3.44-.013 7.049.172 10.803.632 12.188 1.475 20.517 4.988 28.56 8.396zm43.365 35.234c5.286.025 12.579-1.626 20.779-3.928v7.715c-7.977 2.166-15.175 3.678-20.818 3.646-18.426-.093-29.345-3.843-39.152-7.895l-13.117-13.197c4.393 1.447 8.33 3.118 12.188 4.737 10.669 4.527 20.765 8.79 40.12 8.922zm20.779 19.335v7.737c-8.734 2.439-16.634 4.197-22.739 4.162a119.813 119.813 0 0 1-5.911-.185l-8.186-8.236c4.145.592 8.787.947 14.149.974 5.702.037 13.711-1.876 22.687-4.452zm0 31.844c-2.334.655-4.633 1.28-6.837 1.816l-6.159-6.197c3.96-.823 8.361-1.999 12.997-3.338v7.719z"/></svg>