<svg xmlns="http://www.w3.org/2000/svg" width="1245" height="1240" viewBox="0 0 1245 1240"><path fill="#F9F9F9" d="M44.15 589.717c11.352 1.371 18.967 4.566 27.045 7.962 11.047 4.66 22.506 9.466 43.694 9.6 9.476.054 23.185-4.099 37.706-8.505 15.944-4.846 34.018-10.33 47.5-10.342 8.372-.013 18.021 4.341 28.242 8.947 11.606 5.246 23.598 10.664 35.75 10.678 13.908.04 27.536-4.884 41.977-10.115 14.4-5.191 29.28-10.569 44.425-10.622 10.008-.026 21.003 4.766 32.635 9.826 12.297 5.352 25.008 10.904 37.572 10.931 13.336 0 27.204-5.084 40.634-9.996 13.162-4.833 26.764-9.837 39.567-9.863 11.353-.039 23.278 4.434 35.895 9.173 12.844 4.807 26.113 9.773 39.17 9.786 13.389.027 27.67-5.071 41.471-10.009 13.19-4.699 26.818-9.57 38.97-9.61 12.577-.04 24.702 4.953 37.545 10.239 12.763 5.259 25.954 10.677 39.716 10.731 15.863.054 31.062-5.244 45.757-10.355 14.227-4.964 27.656-9.637 41.351-9.729 11.858-.066 24.009 4.714 35.762 9.333 11.872 4.66 24.156 9.493 36.522 9.533 14.919.068 28.934-5.163 42.496-10.208 12.523-4.672 24.356-9.078 36.187-9.197 12.218-.133 25.834 5.286 39.023 10.518 13.03 5.179 25.355 10.079 36.868 10.226 16.609.214 31.476-5.789 45.85-11.593 11.405-4.619 22.172-8.972 32.314-9.371 13.416-.532 26.979 5.632 38.943 11.078 9.384 4.274 18.222 8.294 26.354 9 18.034 1.558 31.769-1.183 40.965-4.311l-6.043-6.044c-8.278 2.316-19.763 4.086-34.284 2.848-6.827-.6-15.106-4.354-23.877-8.336-12.724-5.804-27.164-12.368-42.363-11.756-11.447.452-22.799 5.045-34.844 9.903-13.668 5.524-27.83 11.247-42.922 11.06-10.115-.133-21.814-4.78-34.191-9.706-13.855-5.498-28.177-11.197-41.873-11.051-13.162.146-26.152 4.991-38.743 9.676-12.909 4.819-26.272 9.797-39.834 9.729-10.953-.04-22.04-4.393-33.792-9.014-12.419-4.886-25.262-9.932-38.557-9.84-14.947.093-29.613 5.204-43.787 10.143-14.108 4.898-28.695 9.983-43.255 9.929-12.285-.04-24.224-4.953-36.868-10.171-12.964-5.326-26.366-10.851-40.447-10.798-13.442.053-27.683 5.137-41.471 10.062-13.203 4.712-26.858 9.584-38.929 9.57-11.7-.013-24.33-4.74-36.535-9.333-12.71-4.753-25.847-9.666-38.57-9.64-14.121.039-28.375 5.27-42.137 10.329-13.389 4.898-26.019 9.544-38.037 9.53-10.98-.014-22.972-5.246-34.565-10.292-11.832-5.152-24.064-10.491-35.655-10.452-16.464.039-31.969 5.643-46.968 11.061-13.802 4.991-26.818 9.704-39.409 9.677-10.54-.028-21.787-5.1-32.66-10.012-10.981-4.966-21.349-9.64-31.345-9.626-14.601.012-32.447 5.43-49.684 10.661-13.961 4.246-27.136 8.239-35.468 8.185-19.699-.107-29.96-4.435-40.833-9.001-8.186-3.449-16.664-7.003-29.068-8.495-2.769-.319-5.457-.532-8.053-.599l-7.639 7.641a82.593 82.593 0 0 1 14.8.427zm-.971 26.051c11.353 1.372 18.966 4.567 27.032 7.949 11.073 4.66 22.519 9.479 43.708 9.613 9.475.054 23.184-4.126 37.704-8.531 15.932-4.832 34.005-10.316 47.5-10.342 8.385 0 18.022 4.367 28.243 8.974 11.592 5.232 23.598 10.637 35.749 10.678 13.895.027 27.55-4.898 41.977-10.116 14.388-5.205 29.28-10.595 44.44-10.634 10.008-.027 20.988 4.753 32.621 9.839 12.299 5.352 25.008 10.904 37.56 10.918 13.349.014 27.217-5.071 40.633-9.996 13.162-4.832 26.777-9.823 39.568-9.863 11.352-.04 23.278 4.434 35.909 9.16 12.83 4.82 26.113 9.799 39.168 9.813 13.389.027 27.67-5.07 41.471-10.009 13.177-4.712 26.818-9.571 38.957-9.623 12.59-.053 24.729 4.953 37.572 10.238 12.751 5.246 25.94 10.691 39.715 10.732 15.839.054 31.037-5.244 45.744-10.368 14.227-4.938 27.656-9.611 41.352-9.703 11.845-.079 24.01 4.687 35.763 9.307 11.885 4.673 24.17 9.506 36.508 9.546 14.947.067 28.947-5.151 42.51-10.196 12.524-4.672 24.356-9.078 36.188-9.197 12.205-.146 25.846 5.273 39.009 10.505 13.045 5.192 25.355 10.079 36.882 10.239 16.609.214 31.463-5.803 45.836-11.607 11.406-4.618 22.173-8.971 32.314-9.37 13.416-.532 26.993 5.645 38.958 11.09 9.369 4.26 18.233 8.281 26.352 8.973 35.31 3.05 54.115-10.328 54.888-10.914l-4.433-6.083c-.16.133-17.528 12.286-49.802 9.503-6.841-.586-15.119-4.34-23.878-8.335-12.736-5.791-27.177-12.355-42.364-11.757-11.46.439-22.825 5.044-34.842 9.903-13.683 5.537-27.83 11.247-42.936 11.047-10.128-.12-21.8-4.766-34.192-9.679-13.842-5.512-28.177-11.197-41.871-11.052-13.15.133-26.167 4.979-38.731 9.664-12.936 4.818-26.298 9.797-39.847 9.742-10.941-.054-22.054-4.407-33.793-9.014-12.417-4.886-25.26-9.932-38.57-9.852-14.947.092-29.6 5.19-43.774 10.129-14.107 4.925-28.681 9.996-43.242 9.942-12.298-.027-24.249-4.953-36.881-10.159-12.964-5.325-26.365-10.851-40.46-10.811-13.417.052-27.684 5.137-41.459 10.076-13.202 4.712-26.858 9.584-38.928 9.57-11.686-.027-24.317-4.753-36.534-9.333-12.711-4.753-25.848-9.692-38.571-9.64-14.121.039-28.362 5.257-42.151 10.315-13.375 4.912-26.019 9.544-38.011 9.53-11.007-.014-22.986-5.233-34.592-10.293-11.819-5.165-24.049-10.477-35.643-10.465-16.464.066-31.969 5.67-46.968 11.087-13.788 4.979-26.831 9.69-39.421 9.663-10.528-.013-21.76-5.1-32.661-10.012-10.967-4.952-21.349-9.639-31.344-9.626-14.601.013-32.421 5.43-49.683 10.66-13.948 4.233-27.137 8.24-35.455 8.199-19.712-.12-29.973-4.447-40.847-9.014-8.186-3.448-16.637-7.003-29.041-8.495-15.16-1.824-27.936.465-36.96 3.233l-7.133 10.783c6.575-3.057 22.531-9.007 43.187-6.531zm1147.223 35.101c-6.815-.586-15.106-4.354-23.876-8.335-12.738-5.791-27.152-12.355-42.365-11.757-11.447.453-22.799 5.045-34.83 9.916-13.695 5.524-27.829 11.248-42.935 11.048-10.115-.134-21.814-4.78-34.192-9.707-13.855-5.498-28.177-11.196-41.871-11.05-13.15.159-26.153 4.991-38.744 9.676-12.91 4.819-26.271 9.797-39.847 9.743-10.928-.04-22.028-4.407-33.779-9.027-12.418-4.886-25.261-9.932-38.558-9.839-14.96.105-29.613 5.203-43.787 10.142-14.107 4.898-28.695 9.983-43.242 9.942-12.284-.04-24.237-4.966-36.881-10.159-12.964-5.352-26.38-10.864-40.46-10.811-13.43.039-27.67 5.124-41.459 10.049-13.202 4.712-26.844 9.596-38.929 9.569-11.699-.013-24.329-4.74-36.547-9.32-12.698-4.767-25.834-9.679-38.557-9.653-14.135.053-28.375 5.27-42.138 10.329-13.374 4.912-26.032 9.557-38.037 9.53-10.98-.013-22.972-5.246-34.564-10.292-11.833-5.152-24.064-10.491-35.656-10.451-16.464.039-31.969 5.643-46.968 11.06-13.801 4.992-26.831 9.717-39.408 9.677-10.542-.027-21.788-5.1-32.662-10.012-10.993-4.953-21.349-9.639-31.344-9.626-14.599.013-32.448 5.43-49.682 10.661-13.962 4.246-27.151 8.252-35.482 8.199-19.685-.12-29.96-4.434-40.821-9.014-8.198-3.435-16.663-7.003-29.067-8.495a89.985 89.985 0 0 0-31.423 1.743l6.401 6.404a82.728 82.728 0 0 1 24.13-.678c11.352 1.372 18.979 4.58 27.032 7.975 11.073 4.66 22.532 9.467 43.708 9.587 9.462.068 23.184-4.099 37.704-8.505 15.945-4.845 34.018-10.329 47.5-10.342 8.372-.013 18.022 4.34 28.256 8.961 11.592 5.231 23.585 10.65 35.723 10.678 13.921.027 27.55-4.898 41.99-10.129 14.401-5.191 29.28-10.569 44.44-10.608 10.008-.026 20.988 4.753 32.621 9.813 12.298 5.379 25.022 10.917 37.573 10.931 13.349.013 27.217-5.071 40.633-9.996 13.163-4.832 26.765-9.811 39.568-9.863 11.339-.026 23.278 4.434 35.894 9.173 12.845 4.806 26.127 9.785 39.183 9.8 13.376.014 27.657-5.084 41.473-10.009 13.175-4.711 26.803-9.584 38.955-9.623 12.578-.039 24.702 4.954 37.56 10.252 12.749 5.246 25.953 10.677 39.714 10.732 15.852.04 31.051-5.258 45.744-10.369 14.214-4.951 27.656-9.637 41.365-9.716 11.845-.079 23.997 4.7 35.75 9.32 11.885 4.673 24.157 9.493 36.521 9.533 14.919.068 28.947-5.15 42.496-10.208 12.51-4.659 24.342-9.065 36.187-9.197 12.218-.133 25.834 5.286 39.023 10.518 13.03 5.179 25.355 10.078 36.868 10.225 16.609.214 31.476-5.789 45.849-11.593 11.407-4.618 22.173-8.971 32.315-9.371 13.402-.518 26.965 5.646 38.957 11.091 9.369 4.26 18.221 8.294 26.34 8.987 8.066.692 15.251.533 21.574-.146l9.156-9.158c-7.812 1.77-17.888 2.847-30.092 1.795zm-61.808 7.159c-11.46.439-22.813 5.031-34.844 9.903-13.695 5.524-27.829 11.248-42.935 11.047-10.114-.134-21.815-4.78-34.179-9.692-13.868-5.512-28.188-11.211-41.884-11.065-13.15.159-26.153 4.991-38.731 9.69-12.923 4.806-26.284 9.784-39.833 9.73-10.953-.041-22.054-4.407-33.807-9.027-12.404-4.872-25.247-9.919-38.557-9.84-14.96.106-29.613 5.204-43.787 10.142-14.094 4.911-28.681 9.997-43.242 9.943-12.284-.041-24.236-4.967-36.88-10.16-12.964-5.352-26.354-10.864-40.461-10.811-13.43.04-27.67 5.125-41.459 10.049-13.189 4.726-26.844 9.597-38.915 9.583-11.712-.027-24.343-4.754-36.547-9.321-12.711-4.779-25.847-9.692-38.557-9.653-14.148.04-28.376 5.27-42.151 10.316-13.374 4.911-26.018 9.543-38.036 9.53-10.98-.014-22.959-5.233-34.565-10.292-11.833-5.153-24.063-10.491-35.656-10.452-16.464.039-31.968 5.643-46.954 11.074-13.802 4.992-26.831 9.69-39.421 9.663-10.528-.014-21.787-5.1-32.662-10.012-10.979-4.94-21.349-9.64-31.343-9.626-14.6.012-32.435 5.443-49.683 10.661-13.961 4.246-27.151 8.253-35.469 8.186-19.698-.107-29.973-4.421-40.834-9.001-8.186-3.449-16.663-7.003-29.067-8.495a87.986 87.986 0 0 0-10.994-.64l7.88 7.882c.732.067 1.476.146 2.236.24 11.34 1.359 18.966 4.567 27.018 7.962 11.073 4.66 22.532 9.466 43.721 9.6 9.45.054 23.172-4.112 37.691-8.518 15.945-4.845 34.019-10.33 47.501-10.342 8.371-.013 18.034 4.354 28.255 8.96 11.592 5.232 23.585 10.651 35.737 10.692 13.908.013 27.536-4.911 41.99-10.129 14.387-5.205 29.266-10.582 44.426-10.622 10.008-.025 20.988 4.754 32.621 9.813 12.299 5.379 25.022 10.917 37.574 10.931 13.349.014 27.217-5.07 40.632-9.995 13.163-4.832 26.764-9.81 39.568-9.863 11.34-.026 23.278 4.434 35.896 9.174 12.844 4.806 26.125 9.786 39.182 9.8 13.389.027 27.656-5.084 41.472-10.009 13.175-4.712 26.817-9.57 38.955-9.623 12.577-.039 24.716 4.967 37.559 10.252 12.751 5.246 25.954 10.677 39.715 10.732 15.852.041 31.051-5.257 45.744-10.368 14.214-4.951 27.656-9.637 41.365-9.716 11.845-.079 23.997 4.701 35.75 9.32 11.885 4.673 24.157 9.493 36.521 9.534 14.92.067 28.947-5.151 42.496-10.209 12.537-4.659 24.356-9.052 36.188-9.197 12.218-.133 25.833 5.286 39.023 10.518 13.044 5.193 25.355 10.079 36.868 10.226 16.622.227 31.476-5.789 45.849-11.593 11.406-4.619 22.173-8.972 32.315-9.371 13.402-.518 26.979 5.659 38.957 11.091 6.202 2.822 12.165 5.538 17.848 7.256l6.19-6.19c-6.203-1.226-13.389-4.501-20.937-7.922-12.727-5.78-27.154-12.358-42.353-11.746zm3.301 26.625c-11.459.439-22.811 5.031-34.842 9.903-13.683 5.537-27.83 11.247-42.936 11.047-10.115-.134-21.814-4.78-34.178-9.693-13.868-5.512-28.19-11.21-41.872-11.051-13.163.146-26.179 4.991-38.743 9.676-12.923 4.806-26.285 9.784-39.848 9.743-10.941-.053-22.04-4.421-33.779-9.027-12.418-4.886-25.261-9.932-38.583-9.839-14.947.092-29.601 5.19-43.775 10.129-14.095 4.911-28.681 9.996-43.241 9.942-12.285-.04-24.237-4.966-36.882-10.158-12.962-5.352-26.365-10.851-40.46-10.812-13.429.039-27.683 5.138-41.458 10.049-13.19 4.725-26.845 9.597-38.916 9.583-11.699-.014-24.343-4.753-36.547-9.32-12.698-4.767-25.848-9.692-38.557-9.653-14.134.053-28.375 5.27-42.15 10.315-13.389 4.925-26.032 9.557-38.024 9.543-10.993-.027-22.973-5.246-34.578-10.305-11.833-5.151-24.064-10.491-35.656-10.451-16.464.039-31.983 5.656-46.969 11.087-13.788 4.978-26.83 9.69-39.407 9.65-10.528-.014-21.788-5.1-32.662-10.013-10.98-4.939-21.361-9.625-31.344-9.626-14.613.026-32.433 5.443-49.682 10.661-13.961 4.246-27.15 8.253-35.469 8.213-19.698-.134-29.973-4.448-40.833-9.027-3.927-1.638-7.933-3.329-12.405-4.793l13.35 13.353c9.982 4.101 21.096 7.894 39.848 7.989 9.45.054 23.171-4.113 37.691-8.518 15.945-4.845 34.018-10.329 47.501-10.341 8.372-.013 18.034 4.354 28.244 8.973 11.605 5.219 23.598 10.638 35.748 10.678 13.91.014 27.538-4.911 41.992-10.129 14.386-5.205 29.266-10.582 44.425-10.621 10.008-.027 20.989 4.754 32.622 9.839 12.298 5.352 25.022 10.891 37.572 10.905 13.336.027 27.218-5.071 40.633-9.996 13.15-4.818 26.765-9.81 39.569-9.863 11.34-.026 23.264 4.448 35.896 9.174 12.844 4.806 26.126 9.785 39.169 9.813 13.403.014 27.67-5.097 41.485-10.022 13.176-4.712 26.818-9.57 38.942-9.61 12.591-.053 24.729 4.953 37.573 10.239 12.75 5.245 25.954 10.677 39.715 10.731 15.838.054 31.036-5.244 45.744-10.368 14.227-4.938 27.642-9.624 41.364-9.716 11.846-.079 23.997 4.7 35.75 9.32 11.886 4.673 24.157 9.493 36.508 9.547 14.933.054 28.962-5.164 42.51-10.222 12.524-4.645 24.356-9.051 36.188-9.197 12.217-.133 25.834 5.286 39.01 10.531 13.057 5.179 25.368 10.065 36.868 10.225 16.636.214 31.489-5.803 45.863-11.607 11.393-4.606 22.173-8.971 32.315-9.37 12.177-.465 24.502 4.594 35.642 9.586l5.67-5.671c-12.556-5.713-26.731-12.01-41.611-11.425zm-1.955 24.082c-11.447.452-22.813 5.031-34.844 9.903-13.668 5.524-27.829 11.248-42.934 11.047-10.115-.133-21.801-4.766-34.179-9.693-13.855-5.499-28.176-11.197-41.872-11.051-13.163.146-26.152 4.99-38.744 9.676-12.923 4.805-26.284 9.783-39.833 9.729-10.954-.04-22.041-4.393-33.792-9.014-12.419-4.886-25.262-9.932-38.572-9.852-14.946.092-29.599 5.217-43.786 10.142-14.094 4.911-28.681 9.996-43.242 9.942-12.284-.04-24.223-4.953-36.867-10.172-12.964-5.326-26.365-10.851-40.447-10.798-13.443.052-27.683 5.137-41.472 10.062-13.202 4.712-26.857 9.584-38.929 9.57-11.699-.014-24.316-4.753-36.534-9.333-12.71-4.753-25.86-9.68-38.57-9.64-14.122.039-28.375 5.27-42.15 10.315-13.376 4.911-26.02 9.544-38.025 9.544-10.98-.014-22.972-5.246-34.578-10.305-11.833-5.152-24.05-10.477-35.643-10.438-16.464.039-31.969 5.643-46.968 11.06-13.801 4.992-26.831 9.69-39.409 9.677-10.54-.027-21.787-5.1-32.661-10.013-10.98-4.966-21.349-9.639-31.344-9.626-14.613-.001-32.448 5.43-49.683 10.66-13.974 4.233-27.137 8.239-35.468 8.185-5.457-.027-10.183-.386-14.401-.985l8.332 8.334c1.916.107 3.926.173 6.015.187 9.476.054 23.185-4.099 37.705-8.506 15.945-4.845 34.005-10.342 47.5-10.341 8.372-.013 18.022 4.341 28.242 8.947 11.606 5.246 23.598 10.664 35.75 10.678 13.908.04 27.536-4.885 41.977-10.115 14.387-5.205 29.266-10.582 44.426-10.622 10.008-.026 21.002 4.767 32.635 9.826 12.298 5.352 25.009 10.904 37.56 10.918 13.348.014 27.217-5.071 40.633-9.996 13.162-4.832 26.778-9.824 39.581-9.85 11.352-.039 23.264 4.421 35.895 9.174 12.844 4.806 26.113 9.773 39.169 9.786 13.389.027 27.67-5.07 41.472-10.009 13.189-4.699 26.817-9.57 38.955-9.624 12.591-.026 24.716 4.967 37.559 10.252 12.764 5.259 25.954 10.678 39.716 10.732 15.851.04 31.063-5.244 45.743-10.369 14.228-4.938 27.67-9.623 41.366-9.716 11.858-.066 24.009 4.714 35.763 9.333 11.871 4.66 24.156 9.493 36.521 9.533 14.933.054 28.934-5.164 42.496-10.208 12.524-4.672 24.357-9.078 36.188-9.197 12.205-.146 25.833 5.286 39.01 10.505 13.044 5.192 25.368 10.092 36.882 10.239 16.608.214 31.476-5.789 45.836-11.606 11.42-4.606 22.186-8.959 32.327-9.357 6.655-.266 13.31 1.118 19.832 3.249l5.922-5.923c-8.28-3.035-17.037-5.218-26.061-4.846zm-.571 24.561c-11.446.452-22.812 5.057-34.83 9.916-13.695 5.524-27.829 11.248-42.935 11.047-10.128-.12-21.815-4.78-34.205-9.692-13.843-5.512-28.177-11.197-41.871-11.051-13.137.146-26.154 4.991-38.731 9.662-12.923 4.832-26.271 9.797-39.847 9.743-10.927-.04-22.041-4.394-33.78-9.027-12.417-4.86-25.26-9.906-38.57-9.826-14.947.092-29.6 5.191-43.774 10.129-14.094 4.912-28.694 9.984-43.242 9.943-12.312-.041-24.236-4.967-36.88-10.159-12.977-5.339-26.38-10.864-40.461-10.811-13.43.039-27.684 5.138-41.459 10.049-13.215 4.725-26.858 9.61-38.942 9.583-11.685-.027-24.316-4.754-36.521-9.32-12.724-4.766-25.847-9.693-38.585-9.653-14.12.039-28.349 5.27-42.124 10.315-13.388 4.925-26.032 9.557-38.036 9.53-10.994 0-22.986-5.233-34.579-10.278-11.819-5.166-24.063-10.491-35.642-10.466-16.477.053-31.982 5.657-46.981 11.074-13.788 4.978-26.818 9.704-39.408 9.676-10.529-.04-21.774-5.112-32.662-10.012-10.966-4.952-21.348-9.639-31.344-9.626-14.6.013-32.434 5.416-49.682 10.661-9.025 2.742-17.741 5.391-25.022 6.895l6.269 6.27c6.495-1.571 13.615-3.74 20.949-5.963 15.945-4.845 34.005-10.316 47.501-10.342 8.371-.013 18.02 4.341 28.243 8.974 11.592 5.232 23.598 10.637 35.736 10.665 13.908.04 27.55-4.898 41.977-10.116 14.401-5.191 29.293-10.582 44.453-10.621 10.008-.026 20.988 4.753 32.608 9.826 12.312 5.365 25.035 10.904 37.572 10.931 13.349.014 27.232-5.084 40.634-9.996 13.162-4.832 26.777-9.824 39.568-9.863 11.352-.039 23.278 4.434 35.909 9.161 12.842 4.806 26.112 9.799 39.168 9.813 13.376.014 27.657-5.084 41.472-10.009 13.176-4.712 26.818-9.597 38.956-9.623 12.591-.053 24.715 4.94 37.572 10.238 12.751 5.246 25.941 10.691 39.715 10.732 15.84.054 31.038-5.244 45.744-10.369 14.215-4.951 27.643-9.623 41.352-9.702 11.858-.093 24.01 4.687 35.763 9.306 11.885 4.673 24.157 9.493 36.508 9.547 14.934.054 28.948-5.151 42.497-10.209 12.524-4.672 24.355-9.078 36.2-9.211 12.206-.119 25.834 5.286 39.01 10.532 13.03 5.179 25.355 10.079 36.869 10.225 16.609.214 31.476-5.79 45.862-11.606 11.034-4.459 21.481-8.679 31.33-9.29l7.4-7.401a46.972 46.972 0 0 0-6.724-.201zm-76.939 48.201c-10.128-.147-21.815-4.78-34.192-9.707-13.855-5.498-28.176-11.196-41.871-11.05-13.163.146-26.153 4.991-38.744 9.676-12.923 4.805-26.285 9.783-39.834 9.729-10.954-.04-22.04-4.393-33.793-9.014-12.417-4.886-25.26-9.932-38.557-9.84-14.946.093-29.613 5.204-43.787 10.143-14.108 4.898-28.694 9.983-43.255 9.929-12.285-.04-24.223-4.952-36.867-10.172-12.964-5.325-26.367-10.85-40.449-10.797-13.442.052-27.682 5.137-41.47 10.062-13.203 4.712-26.859 9.585-38.929 9.57-11.699-.014-24.317-4.753-36.534-9.334-12.711-4.753-25.86-9.679-38.572-9.639-14.12.039-28.374 5.27-42.137 10.328-13.388 4.898-26.032 9.53-38.036 9.53-10.98-.014-22.973-5.246-34.565-10.292-11.833-5.152-24.063-10.491-35.656-10.452-16.464.039-31.968 5.643-46.967 11.06-13.802 4.992-26.832 9.69-39.408 9.677-10.542-.027-21.787-5.099-32.662-10.012-10.979-4.967-21.349-9.639-31.343-9.626-14.6.013-32.448 5.43-49.683 10.661-1.424.44-2.835.866-4.246 1.292l6.03 6.03c.147-.04.266-.08.413-.119 15.931-4.832 34.005-10.316 47.487-10.328 8.371-.013 18.02 4.341 28.243 8.947 11.605 5.246 23.598 10.664 35.75 10.678 13.908.04 27.549-4.898 41.977-10.116 14.387-5.204 29.266-10.582 44.426-10.621 10.008-.026 21.001 4.767 32.634 9.826 12.299 5.352 25.008 10.904 37.559 10.918 13.349.014 27.218-5.071 40.634-9.996 13.176-4.819 26.777-9.824 39.581-9.85 11.352-.039 23.278 4.434 35.909 9.161 12.831 4.819 26.1 9.785 39.156 9.799 13.389.027 27.67-5.071 41.472-10.009 13.189-4.699 26.818-9.571 38.956-9.624 12.591-.026 24.715 4.967 37.559 10.252 12.764 5.259 25.954 10.678 39.715 10.732 15.852.04 31.064-5.244 45.757-10.355 14.227-4.965 27.656-9.637 41.352-9.729 11.858-.066 24.01 4.713 35.776 9.321 11.858 4.673 24.143 9.505 36.508 9.546 14.933.054 28.933-5.164 42.496-10.208 12.524-4.672 24.356-9.078 36.187-9.197 12.219-.133 25.834 5.286 39.023 10.518 13.03 5.179 25.355 10.079 36.867 10.226 12.831.161 24.622-3.38 35.936-7.693l13.428-13.431c-2.103.826-4.206 1.677-6.349 2.542-13.672 5.521-27.832 11.245-42.925 11.058zm-33.513 16.373c-13.854-5.498-28.175-11.197-41.871-11.051-13.163.146-26.152 4.991-38.744 9.676-12.923 4.805-26.284 9.784-39.847 9.743-10.94-.054-22.027-4.407-33.778-9.027-12.419-4.886-25.262-9.932-38.559-9.84-14.959.106-29.613 5.204-43.787 10.142-14.107 4.898-28.694 9.983-43.255 9.929-12.284-.04-24.223-4.954-36.881-10.159-12.95-5.339-26.365-10.851-40.447-10.799-13.43.039-27.669 5.124-41.458 10.049-13.203 4.712-26.857 9.583-38.929 9.57-11.699-.014-24.33-4.74-36.547-9.32-12.698-4.767-25.834-9.679-38.557-9.653-14.135.052-28.375 5.27-42.137 10.328-13.389 4.898-26.047 9.544-38.038 9.53-10.98-.014-22.973-5.246-34.565-10.292-11.832-5.152-24.063-10.492-35.655-10.452-16.464.039-31.969 5.643-46.981 11.074-13.789 4.978-26.818 9.703-39.396 9.664-10.542-.028-21.787-5.1-32.661-10.012-10.993-4.953-21.349-9.64-31.344-9.627-10.302.026-22.2 2.715-34.365 6.122l6.149 6.15c10.102-2.702 20.004-4.725 28.216-4.738 8.371-.013 18.021 4.34 28.242 8.947 11.606 5.246 23.598 10.664 35.736 10.691 13.922.027 27.55-4.898 41.991-10.129 14.387-5.204 29.279-10.568 44.426-10.621 10.008-.026 21.001 4.767 32.635 9.826 12.285 5.365 25.008 10.904 37.559 10.918 13.349.013 27.218-5.071 40.647-9.983 13.162-4.832 26.75-9.823 39.567-9.863 11.339-.027 23.279 4.434 35.896 9.173 12.844 4.807 26.113 9.772 39.155 9.799 13.403.014 27.683-5.084 41.486-10.022 13.189-4.699 26.817-9.571 38.955-9.623 12.591-.026 24.716 4.967 37.56 10.252 12.763 5.259 25.953 10.678 39.714 10.732 15.852.04 31.051-5.231 45.757-10.355 14.215-4.952 27.643-9.624 41.352-9.729 11.859-.066 24.01 4.713 35.763 9.333 11.871 4.66 24.156 9.493 36.508 9.546 14.933.054 28.947-5.177 42.509-10.222 12.511-4.659 24.343-9.065 36.188-9.197 12.218-.133 25.833 5.286 39.01 10.532 13.044 5.166 25.368 10.065 36.868 10.225.506 0 1.012 0 1.503-.013l8.159-8.16a61.598 61.598 0 0 1-9.556.639c-10.115-.131-21.814-4.777-34.193-9.703zM306.865 366.693c14.388-5.204 29.267-10.581 44.426-10.621 10.009-.026 20.989 4.754 32.622 9.813 12.312 5.366 25.021 10.917 37.572 10.932 13.349.013 27.218-5.071 40.634-9.996 13.162-4.832 26.777-9.824 39.568-9.863 11.353-.039 23.278 4.434 35.908 9.16 12.83 4.82 26.114 9.799 39.169 9.813 13.389.027 27.657-5.084 41.471-10.009 13.177-4.712 26.818-9.57 38.957-9.623 12.577-.04 24.715 4.966 37.558 10.252 12.751 5.245 25.955 10.677 39.729 10.718 15.839.053 31.037-5.244 45.731-10.355 14.227-4.965 27.656-9.637 41.365-9.716 11.845-.079 23.996 4.701 35.75 9.32 11.885 4.673 24.156 9.493 36.521 9.534 14.933.054 28.947-5.15 42.496-10.209 12.538-4.658 24.369-9.065 36.187-9.197 4.765-.053 9.756.732 14.828 2.051l-9.33-9.332a51.929 51.929 0 0 0-5.577-.253c-13.149.159-26.152 4.991-38.729 9.689-12.923 4.806-26.285 9.784-39.834 9.73-10.953-.04-22.054-4.407-33.806-9.027-12.404-4.873-25.247-9.919-38.557-9.839-14.947.092-29.613 5.204-43.787 10.143-14.094 4.911-28.667 9.983-43.241 9.942-12.285-.04-24.237-4.966-36.868-10.172-12.976-5.339-26.366-10.85-40.46-10.811-13.443.053-27.684 5.137-41.472 10.062-13.189 4.726-26.845 9.597-38.915 9.584-11.699-.014-24.33-4.767-36.534-9.333-12.711-4.754-25.861-9.679-38.572-9.64-14.134.026-28.375 5.27-42.15 10.315-13.375 4.912-26.019 9.544-38.024 9.543-10.993-.027-22.972-5.246-34.578-10.304-11.832-5.152-24.063-10.491-35.655-10.452-16.464.039-31.969 5.643-46.955 11.074-13.801 4.991-26.831 9.69-39.421 9.663-4.339 0-8.811-.879-13.323-2.251l-5.976 5.977c6.362 2.237 12.818 3.795 19.299 3.808 13.891.023 27.534-4.916 41.973-10.12zm-42.961 36.154c13.909.04 27.551-4.898 41.978-10.115 14.4-5.192 29.293-10.583 44.452-10.622 10.008-.027 20.989 4.753 32.609 9.825 12.311 5.366 25.035 10.905 37.572 10.931 13.349.014 27.218-5.07 40.633-9.995 13.164-4.833 26.765-9.837 39.568-9.863 11.352-.039 23.278 4.434 35.909 9.161 12.831 4.819 26.1 9.786 39.17 9.813 13.375.014 27.656-5.085 41.457-10.023 13.19-4.699 26.832-9.584 38.97-9.61 12.591-.053 24.716 4.94 37.559 10.225 12.763 5.259 25.954 10.704 39.715 10.732 15.852.067 31.05-5.23 45.757-10.355 14.214-4.951 27.643-9.623 41.338-9.716 11.872-.079 24.023 4.701 35.776 9.321 11.871 4.66 24.156 9.493 36.508 9.546 14.933.054 28.948-5.177 42.496-10.209 12.524-4.672 24.356-9.078 36.201-9.21 12.205-.12 25.833 5.286 39.011 10.531 6.136 2.436 12.11 4.82 17.94 6.657l-12.684-12.687a274.2 274.2 0 0 1-2.488-.972c-13.843-5.512-28.177-11.196-41.872-11.051-13.15.133-26.152 4.991-38.73 9.663-12.923 4.832-26.272 9.797-39.848 9.743-10.927-.04-22.04-4.394-33.792-9.014-12.418-4.886-25.261-9.932-38.557-9.84-14.948.093-29.601 5.191-43.775 10.129-14.12 4.911-28.694 9.983-43.254 9.93-12.298-.028-24.237-4.94-36.881-10.159-12.964-5.326-26.366-10.851-40.447-10.798-13.429.039-27.683 5.137-41.471 10.062-13.203 4.712-26.858 9.584-38.929 9.57-11.686-.027-24.317-4.753-36.534-9.333-12.711-4.753-25.834-9.679-38.571-9.639-14.121.039-28.362 5.257-42.123 10.315-13.403 4.912-26.033 9.557-38.038 9.53-10.992-.001-22.985-5.233-34.577-10.279-11.819-5.166-24.064-10.491-35.642-10.466-16.477.053-31.984 5.657-46.983 11.074-13.788 4.979-26.818 9.704-39.408 9.677-10.075-.041-20.816-4.687-31.263-9.387l-5.683 5.684c.385.173.784.36 1.185.546 11.604 5.246 23.609 10.652 35.746 10.678zm-.358 24.589c13.909.014 27.551-4.898 41.992-10.129 14.386-5.204 29.266-10.582 44.425-10.621 10.008-.026 21.002 4.767 32.635 9.826 12.285 5.365 25.008 10.904 37.558 10.918 13.349.013 27.217-5.071 40.633-9.996 13.163-4.832 26.765-9.81 39.582-9.849 11.327-.039 23.264 4.42 35.895 9.173 12.844 4.806 26.113 9.773 39.17 9.786 13.389.028 27.668-5.071 41.471-10.009 13.189-4.699 26.818-9.57 38.955-9.623 12.578-.04 24.717 4.966 37.56 10.252 12.763 5.258 25.953 10.677 39.715 10.731 15.851.04 31.05-5.257 45.744-10.368 14.227-4.939 27.668-9.624 41.364-9.717 11.858-.066 23.997 4.701 35.762 9.333 11.872 4.66 24.157 9.493 36.521 9.534 14.92.067 28.935-5.164 42.496-10.209 12.524-4.672 24.343-9.065 36.188-9.197 12.205-.146 25.834 5.286 39.01 10.505 13.043 5.192 25.368 10.092 36.88 10.239 3.074.04 6.096-.133 9.078-.479l-7.068-7.069c-.638.027-1.277.027-1.93.013-10.115-.134-21.8-4.767-34.178-9.693-13.855-5.499-28.176-11.197-41.872-11.051-13.163.145-26.166 4.978-38.743 9.677-12.923 4.805-26.285 9.783-39.834 9.729-10.954-.04-22.041-4.393-33.793-9.014-12.418-4.886-25.261-9.932-38.57-9.852-14.961.106-29.613 5.203-43.787 10.142-14.094 4.911-28.681 9.996-43.242 9.942-12.284-.041-24.223-4.953-36.88-10.159-12.949-5.339-26.353-10.864-40.46-10.812-13.416.053-27.67 5.124-41.445 10.062-13.203 4.712-26.858 9.583-38.929 9.57-11.699-.014-24.33-4.74-36.547-9.32-12.698-4.766-25.848-9.693-38.557-9.654-14.134.053-28.375 5.27-42.15 10.316-13.375 4.911-26.018 9.544-38.024 9.543-10.995-.027-22.973-5.247-34.578-10.305-11.833-5.153-24.051-10.478-35.643-10.438-16.464.039-31.968 5.643-46.968 11.061-13.802 4.991-26.832 9.69-39.409 9.676-10.541-.027-21.787-5.099-32.661-10.012-5.364-2.409-10.554-4.753-15.665-6.537l-5.989 5.99c5.842 1.664 12.072 4.486 18.554 7.402 11.591 5.234 23.584 10.652 35.734 10.693zm-31.315 16.545c11.606 5.246 23.598 10.665 35.75 10.678 13.907.041 27.536-4.884 41.977-10.115 14.386-5.205 29.267-10.582 44.426-10.621 10.008-.026 21.001 4.766 32.635 9.826 12.297 5.352 25.008 10.904 37.559 10.917 13.349.014 27.217-5.071 40.632-9.996 13.177-4.818 26.778-9.823 39.582-9.849 11.353-.039 23.278 4.434 35.896 9.174 12.844 4.807 26.113 9.773 39.17 9.786 13.389.027 27.669-5.071 41.471-10.009 13.189-4.699 26.818-9.571 38.955-9.623 12.591-.027 24.717 4.966 37.56 10.252 12.763 5.259 25.953 10.677 39.715 10.731 15.852.041 31.063-5.244 45.757-10.355 14.214-4.951 27.656-9.637 41.352-9.73 11.858-.066 24.009 4.714 35.763 9.334 11.871 4.66 24.156 9.493 36.521 9.533 14.92.067 28.935-5.164 42.496-10.209 12.524-4.672 24.356-9.078 36.188-9.198 12.218-.132 25.834 5.286 39.023 10.519 13.03 5.179 25.355 10.078 36.867 10.225 9.729.12 18.846-1.89 27.63-4.739l-6.043-6.044c-6.96 2.036-14.134 3.354-21.494 3.261-10.128-.147-21.814-4.78-34.192-9.706-13.854-5.498-28.176-11.196-41.872-11.051-13.163.146-26.152 4.991-38.743 9.676-12.923 4.805-26.285 9.784-39.834 9.73-10.954-.04-22.041-4.394-33.792-9.014-12.419-4.886-25.262-9.932-38.557-9.84-14.947.093-29.615 5.203-43.787 10.142-14.108 4.899-28.695 9.983-43.256 9.93-12.284-.041-24.223-4.953-36.88-10.159-12.951-5.338-26.353-10.863-40.434-10.812-13.444.053-27.683 5.138-41.471 10.063-13.204 4.712-26.858 9.584-38.93 9.57-11.699-.013-24.33-4.74-36.534-9.333-12.71-4.753-25.86-9.679-38.57-9.64-14.121.039-28.375 5.271-42.151 10.315-13.375 4.912-26.018 9.544-38.023 9.543-10.98-.014-22.972-5.247-34.565-10.292-11.832-5.153-24.064-10.491-35.655-10.452-16.464.04-31.969 5.643-46.969 11.061-13.802 4.991-26.831 9.69-39.408 9.676-10.54-.027-21.787-5.1-32.661-10.012-10.98-4.966-21.348-9.639-31.344-9.626-4.485.013-9.277.52-14.267 1.384l-9.809 9.811c8.638-2.143 16.995-3.66 24.077-3.66 8.367-.012 18.017 4.342 28.239 8.948zm-24.941 17.678c8.371-.013 18.02 4.341 28.243 8.947 11.606 5.246 23.598 10.664 35.736 10.691 13.922.027 27.55-4.898 41.991-10.129 14.387-5.204 29.266-10.582 44.426-10.621 10.008-.027 21.001 4.767 32.621 9.839 12.299 5.352 25.022 10.89 37.586 10.918 13.336 0 27.205-5.085 40.634-9.996 13.149-4.819 26.75-9.824 39.567-9.863 11.339-.026 23.279 4.434 35.895 9.173 12.843 4.807 26.114 9.773 39.156 9.8 13.403.013 27.683-5.085 41.485-10.022 13.19-4.7 26.818-9.571 38.956-9.597 12.59-.053 24.716 4.94 37.559 10.225 12.764 5.258 25.954 10.677 39.715 10.731 15.864.054 31.051-5.23 45.757-10.355 14.214-4.951 27.643-9.624 41.352-9.729 11.859-.066 24.01 4.713 35.763 9.333 11.872 4.66 24.157 9.493 36.509 9.546 14.933.055 28.947-5.177 42.509-10.222 12.511-4.658 24.342-9.065 36.187-9.197 12.218-.133 25.834 5.286 39.011 10.532 13.043 5.165 25.367 10.065 36.867 10.226 16.144.2 30.625-5.47 44.613-11.101l-5.804-5.805c-12.377 4.951-25.153 9.53-38.702 9.37-10.115-.133-21.815-4.779-34.193-9.706-13.855-5.498-28.176-11.197-41.872-11.051-13.162.146-26.165 5.004-38.743 9.676-12.923 4.805-26.285 9.783-39.848 9.743-10.94-.054-22.026-4.407-33.779-9.027-12.417-4.886-25.261-9.932-38.557-9.84-14.96.106-29.613 5.204-43.787 10.142-14.107 4.898-28.693 9.983-43.254 9.929-12.285-.04-24.224-4.953-36.882-10.159-12.949-5.339-26.365-10.851-40.447-10.799-13.429.04-27.683 5.137-41.457 10.049-13.203 4.712-26.859 9.584-38.929 9.57-11.699-.013-24.33-4.74-36.548-9.32-12.698-4.767-25.847-9.693-38.557-9.653-14.134.053-28.375 5.271-42.137 10.328-13.403 4.912-26.046 9.545-38.037 9.53-10.98-.014-22.973-5.246-34.565-10.292-11.832-5.152-24.063-10.491-35.655-10.452-16.464.039-31.969 5.643-46.982 11.074-13.788 4.978-26.818 9.703-39.395 9.663-10.542-.027-21.788-5.1-32.661-10.012-10.993-4.953-21.349-9.64-31.344-9.626-14.613.026-32.448 5.43-49.683 10.661-1.823.546-3.633 1.105-5.418 1.637l-10.926 10.929c5.817-1.504 12.112-3.408 18.526-5.351 15.941-4.84 34.016-10.324 47.498-10.337zm-49.456 34.423c15.945-4.845 34.018-10.329 47.514-10.354 8.359 0 18.008 4.354 28.243 8.973 11.592 5.233 23.585 10.651 35.736 10.665 13.908.04 27.55-4.898 41.977-10.116 14.4-5.191 29.28-10.568 44.439-10.608 10.008-.027 20.989 4.754 32.622 9.813 12.312 5.366 25.021 10.917 37.572 10.931 13.349.014 27.217-5.07 40.633-9.995 13.163-4.832 26.778-9.824 39.568-9.863 11.353-.039 23.278 4.434 35.909 9.161 12.83 4.819 26.113 9.799 39.169 9.813 13.376.013 27.657-5.085 41.471-10.009 13.177-4.712 26.805-9.584 38.957-9.623 12.577-.04 24.702 4.954 37.558 10.252 12.764 5.233 25.955 10.678 39.729 10.718 15.839.054 31.036-5.243 45.731-10.355 14.227-4.965 27.656-9.637 41.364-9.716 11.845-.08 23.996 4.7 35.762 9.307 11.872 4.687 24.157 9.493 36.508 9.547 14.933.054 28.948-5.151 42.496-10.209 12.524-4.672 24.357-9.078 36.188-9.197 12.218-.133 25.848 5.273 39.023 10.518 13.03 5.179 25.355 10.079 36.868 10.225 16.609.214 31.476-5.789 45.85-11.593 6.082-2.463 11.978-4.845 17.674-6.602l-5.963-5.964c-4.764 1.623-9.582 3.594-14.519 5.577-13.696 5.524-27.843 11.261-42.949 11.061-10.115-.133-21.814-4.779-34.191-9.706-13.843-5.512-28.177-11.197-41.873-11.051-13.135.146-26.152 4.991-38.742 9.677-12.91 4.818-26.273 9.796-39.835 9.73-10.941-.028-22.04-4.394-33.792-9.014-12.419-4.886-25.249-9.919-38.557-9.839-14.947.093-29.613 5.204-43.787 10.142-14.094 4.911-28.681 9.969-43.241 9.942-12.299-.053-24.237-4.966-36.869-10.172-12.976-5.339-26.378-10.864-40.46-10.811-13.429.039-27.683 5.137-41.471 10.062-13.203 4.712-26.845 9.598-38.93 9.57-11.699-.014-24.315-4.753-36.533-9.333-12.711-4.753-25.848-9.666-38.571-9.64-14.121.039-28.375 5.271-42.137 10.329-13.376 4.912-26.019 9.543-38.037 9.53-10.98-.014-22.972-5.246-34.565-10.292-11.832-5.152-24.064-10.491-35.655-10.451-16.464.039-31.969 5.643-46.969 11.06-13.801 4.992-26.817 9.704-39.408 9.676-10.54-.027-21.787-5.099-32.66-10.012-10.981-4.966-21.349-9.639-31.345-9.626-14.601.013-32.447 5.43-49.684 10.661-13.202 4.02-25.699 7.814-34.057 8.159l-7.386 7.388a136.9 136.9 0 0 0 5.922.174c9.474.049 23.182-4.104 37.703-8.51zm-.572 24.562c15.958-4.831 34.018-10.329 47.515-10.328 8.37-.013 18.021 4.34 28.23 8.96 11.604 5.245 23.597 10.637 35.749 10.678 13.908.041 27.55-4.898 41.977-10.115 14.4-5.218 29.28-10.596 44.439-10.635 10.008-.026 21.001 4.767 32.621 9.84 12.299 5.351 25.023 10.89 37.574 10.904 13.335.027 27.217-5.071 40.619-9.983 13.162-4.832 26.778-9.824 39.581-9.85 11.339-.052 23.265 4.421 35.909 9.161 12.843 4.806 26.1 9.785 39.156 9.799 13.388.027 27.669-5.071 41.472-10.009 13.202-4.712 26.831-9.584 38.955-9.624 12.591-.053 24.729 4.953 37.572 10.239 12.764 5.258 25.954 10.677 39.717 10.731 15.838.055 31.036-5.243 45.742-10.368 14.227-4.939 27.656-9.61 41.352-9.703 11.858-.093 24.023 4.701 35.776 9.32 11.871 4.66 24.156 9.493 36.508 9.546 14.933.054 28.948-5.177 42.496-10.209 12.524-4.672 24.356-9.078 36.201-9.21 12.192-.133 25.834 5.286 38.997 10.518 13.044 5.192 25.368 10.092 36.881 10.239 16.61.214 31.476-5.79 45.85-11.62 11.406-4.592 22.172-8.945 32.314-9.344 2.728-.12 5.483.053 8.198.453l-7.999-8.001c-.16 0-.32 0-.492.014-11.446.451-22.825 5.044-34.843 9.902-13.683 5.538-27.83 11.248-42.936 11.048-10.128-.121-21.8-4.767-34.179-9.693-13.854-5.499-28.188-11.184-41.884-11.038-13.15.132-26.166 4.978-38.73 9.663-12.936 4.818-26.285 9.783-39.848 9.743-10.94-.054-22.027-4.407-33.778-9.027-12.432-4.873-25.275-9.919-38.585-9.84-14.947.093-29.6 5.19-43.774 10.129-14.094 4.911-28.681 9.996-43.242 9.942-12.284-.041-24.223-4.953-36.88-10.159-12.951-5.339-26.367-10.851-40.461-10.811-13.417.052-27.67 5.151-41.444 10.062-13.216 4.726-26.872 9.598-38.943 9.584-11.686-.027-24.317-4.754-36.534-9.333-12.697-4.766-25.847-9.692-38.57-9.64-14.122.039-28.363 5.257-42.137 10.302-13.389 4.925-26.034 9.557-38.025 9.544-10.98-.014-22.985-5.233-34.591-10.292-11.82-5.166-24.051-10.477-35.63-10.451-16.477.052-31.982 5.656-46.981 11.073-13.788 4.979-26.832 9.69-39.396 9.663-10.54-.027-21.787-5.099-32.674-9.998-10.98-4.966-21.349-9.639-31.358-9.64-14.6.013-32.421 5.43-49.669 10.675-13.962 4.219-27.151 8.226-35.469 8.185-8.251-.054-14.853-.852-20.536-2.091l-6.228 6.229c7.107 1.945 15.559 3.316 26.725 3.383 9.461.068 23.184-4.098 37.69-8.517zm-36.865 35.755c9.462.041 23.172-4.112 37.691-8.518 15.945-4.845 34.018-10.329 47.515-10.354 8.357 0 18.021 4.367 28.242 8.973 11.591 5.232 23.585 10.651 35.736 10.665 13.908.04 27.55-4.898 41.991-10.102 14.386-5.205 29.266-10.582 44.425-10.622 10.008-.026 20.988 4.754 32.621 9.813 12.312 5.366 25.023 10.917 37.574 10.931 13.349.014 27.217-5.071 40.632-9.996 13.164-4.831 26.778-9.823 39.568-9.863 11.352-.039 23.278 4.434 35.909 9.161 12.831 4.819 26.114 9.799 39.169 9.813 13.375.013 27.657-5.085 41.472-10.009 13.175-4.712 26.804-9.584 38.955-9.623 12.579-.04 24.716 4.94 37.56 10.252 12.763 5.233 25.953 10.678 39.728 10.718 15.839.054 31.037-5.244 45.731-10.355 14.227-4.965 27.655-9.637 41.365-9.716 11.844-.08 23.997 4.7 35.763 9.307 11.872 4.686 24.156 9.493 36.508 9.547 14.933.053 28.948-5.151 42.496-10.209 12.537-4.659 24.356-9.078 36.188-9.197 12.218-.133 25.847 5.273 39.023 10.518 13.043 5.193 25.355 10.079 36.867 10.225 16.623.228 31.476-5.789 45.85-11.593 11.406-4.619 22.172-8.971 32.315-9.37 13.416-.532 26.991 5.646 38.956 11.091 3.794 1.717 7.494 3.421 11.1 4.846l-14.747-14.751c-10.98-4.806-23.039-9.199-35.603-8.721-11.459.466-22.812 5.058-34.843 9.93-13.683 5.511-27.83 11.247-42.936 11.047-10.114-.133-21.814-4.78-34.179-9.693-13.867-5.511-28.188-11.21-41.884-11.064-13.137.146-26.152 4.991-38.743 9.677-12.91 4.818-26.272 9.796-39.835 9.729-10.94-.027-22.04-4.393-33.792-9.014-12.405-4.873-25.248-9.919-38.557-9.84-14.946.092-29.614 5.204-43.787 10.142-14.094 4.911-28.681 9.969-43.242 9.942-12.284-.041-24.236-4.967-36.867-10.172-12.977-5.339-26.366-10.851-40.461-10.811-13.429.039-27.683 5.137-41.471 10.062-13.203 4.712-26.844 9.597-38.929 9.57-11.699-.014-24.317-4.754-36.521-9.32-12.724-4.766-25.847-9.692-38.583-9.653-14.121.039-28.363 5.284-42.137 10.329-13.376 4.912-26.019 9.543-38.037 9.53-10.98-.014-22.974-5.246-34.565-10.292-11.833-5.152-24.064-10.491-35.657-10.452-16.463.039-31.968 5.643-46.967 11.061-13.788 5.005-26.818 9.704-39.409 9.676-10.527-.014-21.787-5.099-32.662-10.013-10.966-4.952-21.349-9.639-31.343-9.626-14.6.013-32.448 5.43-49.683 10.661-13.962 4.246-27.137 8.239-35.469 8.186-19.698-.107-29.96-4.434-40.833-9.001-.185-.079-.387-.173-.586-.24l-5.749 5.751c1.132.466 2.276.945 3.421 1.424 11.072 4.66 22.518 9.479 43.706 9.613zm.68 26.079c9.45.054 23.172-4.112 37.692-8.518 15.944-4.845 34.018-10.329 47.501-10.341 8.37-.013 18.034 4.354 28.255 8.96 11.593 5.232 23.585 10.651 35.722 10.678 13.922.027 27.551-4.897 42.005-10.115 14.386-5.205 29.266-10.582 44.425-10.621 10.008-.027 20.989 4.754 32.622 9.813 12.297 5.379 25.021 10.917 37.572 10.931 13.349.014 27.217-5.07 40.633-9.996 13.163-4.832 26.764-9.81 39.567-9.863 11.34-.026 23.279 4.434 35.896 9.174 12.843 4.806 26.126 9.786 39.183 9.8 13.376.014 27.655-5.084 41.471-10.009 13.176-4.712 26.818-9.571 38.955-9.623 12.578-.039 24.717 4.967 37.56 10.253 12.75 5.245 25.953 10.677 39.716 10.731 15.851.04 31.049-5.257 45.743-10.368 14.214-4.952 27.656-9.637 41.365-9.716 11.846-.08 23.996 4.7 35.75 9.32 11.885 4.673 24.156 9.493 36.521 9.534 14.92.067 28.948-5.151 42.496-10.209 12.524-4.645 24.343-9.065 36.188-9.197 12.218-.133 25.834 5.285 39.023 10.518 13.043 5.192 25.355 10.079 36.867 10.225 16.623.227 31.477-5.79 45.851-11.593 11.405-4.619 22.173-8.971 32.313-9.37 13.404-.519 26.979 5.659 38.958 11.091 9.369 4.261 18.22 8.294 26.339 8.987 5.258.439 10.155.546 14.654.36l-7.494-7.495a112.926 112.926 0 0 1-6.508-.36c-6.827-.599-15.119-4.367-23.89-8.347-12.724-5.779-27.151-12.355-42.365-11.757-11.445.452-22.797 5.044-34.829 9.916-13.696 5.524-27.83 11.248-42.935 11.047-10.115-.133-21.814-4.78-34.179-9.693-13.867-5.512-28.189-11.21-41.885-11.064-13.15.159-26.152 4.991-38.729 9.69-12.924 4.805-26.286 9.784-39.848 9.743-10.941-.053-22.041-4.42-33.792-9.04-12.405-4.873-25.249-9.919-38.558-9.84-14.959.107-29.614 5.204-43.787 10.143-14.094 4.911-28.681 9.996-43.242 9.942-12.284-.04-24.236-4.967-36.88-10.159-12.964-5.353-26.353-10.865-40.461-10.812-13.429.04-27.669 5.125-41.457 10.049-13.203 4.712-26.845 9.597-38.917 9.583-11.711-.027-24.343-4.753-36.547-9.32-12.697-4.767-25.847-9.692-38.557-9.653-14.147.039-28.375 5.27-42.15 10.315-13.376 4.911-26.032 9.557-38.037 9.53-10.98-.014-22.959-5.233-34.565-10.292-11.833-5.152-24.064-10.491-35.655-10.452-16.464.039-31.969 5.643-46.969 11.061-13.788 5.005-26.817 9.704-39.408 9.677-10.527-.014-21.787-5.1-32.661-10.013-10.98-4.939-21.348-9.639-31.344-9.626-14.613.026-32.434 5.443-49.683 10.661-13.961 4.246-27.149 8.253-35.482 8.199-19.685-.121-29.96-4.435-40.819-9.015-6.163-2.596-12.485-5.246-20.537-7.043l-6.442 6.443c9.742 1.518 16.73 4.46 24.05 7.549 11.071 4.657 22.531 9.463 43.719 9.597zm414.22-448.848c12.297 5.379 25.022 10.917 37.572 10.931 13.349.014 27.217-5.071 40.633-9.996 13.163-4.832 26.751-9.824 39.568-9.863 11.34-.026 23.278 4.434 35.896 9.174 12.844 4.807 26.114 9.772 39.183 9.8 11.659.001 24.009-3.859 36.121-8.119l-5.91-5.911c-10.408 3.541-20.789 6.495-30.211 6.495-11.701-.014-24.33-4.74-36.549-9.32-12.697-4.766-25.834-9.679-38.557-9.653-14.134.053-28.375 5.271-42.137 10.329-13.389 4.898-26.032 9.557-38.037 9.53-10.98-.013-22.972-5.246-34.564-10.292-11.832-5.152-24.065-10.491-35.656-10.452-.133 0-.28.014-.413.014l-8.065 8.067a69.79 69.79 0 0 1 8.504-.545c10.008-.027 20.989 4.753 32.622 9.811zm-.971 26.054c12.298 5.351 25.008 10.904 37.558 10.917 13.349.014 27.219-5.071 40.634-9.996 13.162-4.831 26.777-9.823 39.568-9.863 11.352-.039 23.278 4.434 35.922 9.174 12.831 4.82 26.1 9.786 39.156 9.799 13.389.028 27.669-5.07 41.471-10.008 4.898-1.731 9.836-3.501 14.733-5.045l-5.976-5.977c-3.78 1.251-7.547 2.595-11.287 3.94-13.202 4.712-26.858 9.584-38.928 9.57-11.699-.014-24.317-4.754-36.534-9.333-12.711-4.753-25.847-9.693-38.57-9.64-14.122.039-28.362 5.257-42.151 10.315-13.374 4.911-26.018 9.544-38.024 9.543-10.994-.027-22.973-5.246-34.578-10.305-11.832-5.152-24.05-10.477-35.63-10.451-10.714.039-21.015 2.409-31.036 5.563l-12.138 12.14c14.001-5.058 28.455-10.143 43.175-10.168 10.022-.041 21.002 4.765 32.635 9.825zm-32.979 14.748c10.008-.026 20.988 4.753 32.608 9.826 12.312 5.366 25.035 10.904 37.587 10.918 13.335.027 27.217-5.071 40.632-9.996 13.149-4.819 26.765-9.81 39.568-9.862 11.34-.027 23.265 4.447 35.896 9.173 12.844 4.806 26.126 9.786 39.168 9.813 13.389.001 27.657-5.085 41.473-10.009 11.857-4.246 24.075-8.612 35.255-9.463l-6.761-6.763c-10.248 1.704-20.762 5.458-31.024 9.118-13.202 4.711-26.844 9.597-38.928 9.57-11.699-.014-24.33-4.74-36.534-9.306-12.711-4.78-25.847-9.693-38.57-9.667-14.135.053-28.362 5.284-42.137 10.329-13.389 4.924-26.034 9.557-38.038 9.529-10.98-.013-22.973-5.246-34.565-10.292-11.833-5.152-24.063-10.491-35.656-10.452-16.464.039-31.982 5.657-46.981 11.074-7.04 2.543-13.881 5.018-20.576 6.815l-9.728 9.73c10.807-1.49 21.601-5.391 32.874-9.45 14.397-5.218 29.277-10.596 44.437-10.635zM461.34 212.29c14.387-5.204 29.267-10.582 44.426-10.621 10.008-.027 20.988 4.753 32.634 9.825 12.285 5.365 25.008 10.904 37.56 10.918 13.349.013 27.217-5.071 40.633-9.996 13.162-4.832 26.763-9.81 39.567-9.863 11.339-.026 23.279 4.434 35.896 9.174 12.842 4.807 26.125 9.786 39.169 9.813 13.402.014 27.669-5.097 41.485-10.023 13.176-4.712 26.817-9.57 38.942-9.61 8.013-.026 15.825 1.984 23.757 4.807l-10.967-10.969c-4.205-.879-8.477-1.398-12.817-1.372-13.43.04-27.684 5.138-41.458 10.049-13.189 4.726-26.845 9.597-38.916 9.583-11.699-.014-24.343-4.754-36.547-9.321-12.697-4.766-25.847-9.692-38.558-9.652-14.134.052-28.374 5.27-42.15 10.315-13.375 4.911-26.032 9.557-38.024 9.543-10.993-.027-22.972-5.246-34.578-10.305-11.832-5.152-24.05-10.478-35.655-10.451-16.464.039-31.969 5.643-46.968 11.087-13.788 4.979-26.831 9.69-39.408 9.65-4.366 0-8.864-.906-13.416-2.264l-5.962 5.964c6.388 2.264 12.857 3.835 19.365 3.848 13.908.014 27.536-4.911 41.99-10.129zm-38.689 36.754c13.895.028 27.537-4.911 41.978-10.115 14.399-5.218 29.279-10.595 44.438-10.635 10.008-.026 20.989 4.754 32.622 9.839 12.298 5.352 25.021 10.891 37.572 10.905 13.336.027 27.217-5.071 40.632-9.996 13.15-4.818 26.765-9.81 39.569-9.862 11.34-.026 23.264 4.447 35.896 9.174 12.843 4.806 26.114 9.799 39.17 9.813 13.389.027 27.656-5.084 41.471-10.009 13.19-4.725 26.831-9.584 38.955-9.623 12.591-.053 24.729 4.953 37.573 10.239 7.612 3.142 15.386 6.338 23.332 8.401l-11.886-11.889c-2.834-1.105-5.696-2.29-8.584-3.475-12.951-5.338-26.366-10.85-40.461-10.811-13.415.053-27.683 5.137-41.444 10.063-13.216 4.725-26.872 9.596-38.943 9.583-11.686-.027-24.33-4.767-36.534-9.333-12.697-4.767-25.847-9.693-38.57-9.64-14.121.039-28.362 5.258-42.137 10.302-13.389 4.925-26.032 9.557-38.024 9.543-10.993-.027-22.986-5.233-34.578-10.305-11.833-5.152-24.064-10.465-35.656-10.452-16.464.039-31.982 5.656-46.968 11.087-13.788 4.978-26.831 9.69-39.408 9.649-10.527-.013-21.774-5.086-32.675-9.999-.678-.306-1.343-.599-2.009-.919l-5.709 5.71a756.43 756.43 0 0 1 4.632 2.077c11.59 5.232 23.595 10.638 35.746 10.678zm-1.955 24.082c13.922.027 27.551-4.898 41.99-10.129 14.388-5.205 29.267-10.582 44.426-10.622 10.009-.026 21.002 4.767 32.635 9.826 12.285 5.366 25.009 10.904 37.56 10.918 13.349.014 27.217-5.071 40.633-9.996 13.176-4.818 26.765-9.81 39.581-9.85 11.34-.025 23.278 4.434 35.896 9.174 12.843 4.807 26.112 9.772 39.168 9.786 13.389.028 27.67-5.07 41.472-10.009 13.189-4.698 26.817-9.57 38.956-9.623 12.59-.027 24.715 4.967 37.558 10.252 12.765 5.259 25.954 10.677 39.716 10.731 3.767.013 7.493-.279 11.18-.798l-6.868-6.869a57.843 57.843 0 0 1-4.285.133c-12.284-.04-24.224-4.953-36.88-10.159-12.951-5.339-26.353-10.864-40.447-10.798-13.43.039-27.67 5.124-41.459 10.049-13.202 4.711-26.857 9.584-38.928 9.569-11.7-.013-24.33-4.74-36.548-9.32-12.697-4.766-25.847-9.692-38.557-9.653-14.135.053-28.375 5.271-42.151 10.315-13.375 4.912-26.018 9.544-38.024 9.543-10.98-.014-22.972-5.246-34.564-10.292-11.833-5.152-24.063-10.491-35.656-10.452-16.464.039-31.969 5.643-46.968 11.061-13.801 4.991-26.831 9.69-39.408 9.677-10.541-.027-21.788-5.1-32.662-10.012-6.108-2.756-12.031-5.432-17.808-7.27l-6.135 6.137c6.482 1.505 13.523 4.687 20.843 7.989 11.604 5.246 23.597 10.664 35.734 10.692zm-36.307 13.896c11.593 5.232 23.598 10.638 35.737 10.665 13.908.04 27.549-4.898 41.99-10.102 14.387-5.205 29.266-10.582 44.439-10.635 10.008-.026 20.976 4.767 32.608 9.826 12.312 5.365 25.022 10.918 37.572 10.931 13.349.014 27.219-5.071 40.634-9.996 13.163-4.832 26.777-9.824 39.568-9.863 11.352-.039 23.278 4.434 35.908 9.16 12.831 4.819 26.114 9.799 39.17 9.813 13.375.014 27.656-5.084 41.471-10.009 13.176-4.712 26.805-9.584 38.956-9.623 12.577-.039 24.716 4.94 37.572 10.239 12.751 5.246 25.941 10.691 39.716 10.731 10.781.027 21.268-2.396 31.503-5.603l-6.044-6.044c-8.411 2.422-16.942 4.14-25.447 4.126-12.285-.04-24.235-4.967-36.867-10.172-12.977-5.339-26.367-10.85-40.462-10.811-13.429.039-27.683 5.138-41.471 10.063-13.202 4.712-26.844 9.597-38.928 9.57-11.699-.014-24.317-4.754-36.521-9.32-12.724-4.766-25.847-9.692-38.585-9.652-14.12.039-28.348 5.27-42.137 10.328-13.374 4.911-26.018 9.543-38.024 9.516-10.993 0-22.985-5.232-34.578-10.278-11.819-5.166-24.063-10.491-35.643-10.465-16.477.052-31.983 5.656-46.981 11.074-13.789 5.005-26.818 9.704-39.409 9.676-10.529-.013-21.788-5.099-32.662-10.012-10.966-4.952-21.349-9.639-31.344-9.626-2.768 0-5.669.213-8.651.559l-9.209 9.211c6.401-1.371 12.511-2.236 17.874-2.249 8.361-.001 18.022 4.366 28.245 8.972zm-27.416 18.264c8.371-.013 18.021 4.341 28.243 8.947 11.606 5.246 23.598 10.664 35.736 10.691 13.922.027 27.55-4.898 41.991-10.129 14.4-5.19 29.279-10.568 44.426-10.621 10.008-.026 21.001 4.767 32.635 9.826 12.285 5.365 25.008 10.904 37.573 10.931 13.349.014 27.217-5.071 40.633-9.996 13.162-4.831 26.763-9.836 39.567-9.863 11.339-.026 23.279 4.434 35.896 9.174 12.843 4.807 26.112 9.772 39.169 9.786 13.389.027 27.669-5.071 41.471-10.009 13.19-4.699 26.818-9.57 38.969-9.61 12.578-.04 24.703 4.953 37.546 10.239 12.764 5.258 25.954 10.677 39.715 10.731 15.852.04 31.064-5.244 45.757-10.355a1529.67 1529.67 0 0 1 5.497-1.904l-5.923-5.924c-.679.253-1.358.479-2.05.719-14.107 4.898-28.694 9.983-43.255 9.929-12.285-.04-24.223-4.953-36.88-10.159-12.951-5.339-26.354-10.864-40.435-10.811-13.443.053-27.683 5.137-41.47 10.062-13.203 4.712-26.859 9.585-38.93 9.57-11.699-.013-24.33-4.74-36.547-9.32-12.699-4.766-25.834-9.679-38.557-9.653-14.122.039-28.376 5.271-42.137 10.328-13.389 4.899-26.02 9.544-38.038 9.53-10.98-.014-22.972-5.246-34.564-10.292-11.832-5.153-24.064-10.491-35.656-10.452-16.464.039-31.969 5.643-46.968 11.061-13.802 4.991-26.818 9.704-39.408 9.676-10.542-.027-21.787-5.099-32.661-10.012-10.98-4.966-21.349-9.639-31.344-9.626-13.429.012-29.626 4.604-45.57 9.423l-11.246 11.248c3.048-.891 6.149-1.837 9.317-2.794 15.941-4.844 34.015-10.328 47.498-10.341zm-46.821 36.419c15.945-4.844 34.018-10.328 47.501-10.341 8.371-.012 18.021 4.341 28.229 8.961 11.619 5.232 23.611 10.651 35.749 10.678 13.921.027 27.549-4.897 41.977-10.115 14.414-5.205 29.293-10.582 44.439-10.635 10.008-.026 21.002 4.767 32.622 9.839 12.298 5.352 25.021 10.89 37.586 10.917 13.336.027 27.217-5.07 40.633-9.996 13.15-4.818 26.751-9.823 39.568-9.863 11.339-.026 23.265 4.448 35.896 9.174 12.843 4.806 26.113 9.772 39.169 9.813 13.376.014 27.656-5.084 41.459-10.023 13.202-4.711 26.83-9.583 38.968-9.61 12.591-.052 24.716 4.94 37.56 10.225 12.763 5.259 25.967 10.691 39.715 10.732 15.852.067 31.05-5.231 45.758-10.355 8.57-2.981 16.85-5.857 25.087-7.707l-6.215-6.217c-7.213 1.89-14.347 4.366-21.348 6.815-14.107 4.898-28.695 9.982-43.256 9.929-12.284-.04-24.223-4.953-36.88-10.159-12.951-5.339-26.366-10.85-40.447-10.798-13.429.039-27.683 5.137-41.459 10.049-13.202 4.712-26.858 9.584-38.929 9.57-11.699-.014-24.33-4.74-36.547-9.32-12.697-4.766-25.834-9.679-38.557-9.653-14.135.052-28.375 5.27-42.137 10.329-13.402 4.911-26.033 9.557-38.038 9.53-10.98-.014-22.985-5.233-34.564-10.292-11.833-5.152-24.064-10.491-35.656-10.452-16.464.039-31.982 5.656-46.981 11.074-13.788 4.978-26.818 9.703-39.396 9.663-10.541-.027-21.787-5.1-32.661-10.013-10.993-4.953-21.362-9.625-31.344-9.626-14.613.026-32.448 5.43-49.696 10.675-12.085 3.674-23.61 7.161-31.875 7.999l-7.626 7.628c1.291.039 2.622.066 3.992.08 9.463.068 23.184-4.098 37.704-8.505zM634.139 5.397l-5.883-5.884a527.848 527.848 0 0 0-6.016 2.183c-2.874 1.038-5.709 2.09-8.504 3.075L602.33 16.179c7.52-1.93 15.08-4.699 22.493-7.427a777.418 777.418 0 0 1 9.316-3.355zm-11.258 27.45c9.836-3.607 19.923-7.308 29.746-8.958l-6.415-6.417c-8.731 1.997-17.422 5.178-25.927 8.306-13.015 4.765-25.313 9.291-37.051 9.503l-7.135 7.136a45.71 45.71 0 0 0 6.149.426c13.349.013 27.218-5.071 40.633-9.996zm-.586 24.574c13.164-4.832 26.778-9.824 39.568-9.863 5.577-.013 11.26 1.039 17.103 2.677l-9.703-9.705a53.623 53.623 0 0 0-7.413-.493c-14.121.039-28.362 5.257-42.15 10.315-13.376 4.911-26.019 9.544-38.012 9.53-6.135-.013-12.578-1.638-19.1-3.955l-5.855 5.857c8.279 3.195 16.637 5.619 24.929 5.632 13.351.015 27.219-5.07 40.633-9.995zm-39.792 37.22c13.349.013 27.218-5.071 40.633-9.996 13.163-4.832 26.778-9.824 39.568-9.863 11.353-.039 23.278 4.434 35.895 9.174 6.988 2.623 14.107 5.272 21.242 7.163L708.196 79.47c-2.329-.839-4.645-1.718-6.949-2.583-12.71-4.753-25.847-9.666-38.57-9.64-14.121.039-28.362 5.283-42.137 10.329-13.376 4.911-26.019 9.544-38.037 9.529-10.98-.014-22.972-5.246-34.565-10.292a219.149 219.149 0 0 0-4.352-1.878l-5.723 5.724c2.33.972 4.686 1.997 7.068 3.049 12.311 5.367 25.021 10.919 37.572 10.933zm.679 26.079c13.336.028 27.218-5.071 40.633-9.996 13.15-4.818 26.765-9.809 39.569-9.863 11.339-.026 23.264 4.448 35.894 9.174 12.844 4.806 26.127 9.786 39.17 9.813 3.088.001 6.215-.279 9.343-.771l-6.841-6.843c-.825.053-1.665.067-2.49.067-11.699-.014-24.328-4.74-36.533-9.307-12.711-4.779-25.848-9.692-38.571-9.667-14.134.053-28.362 5.284-42.137 10.329-13.389 4.925-26.032 9.557-38.037 9.53-10.98-.014-22.972-5.247-34.565-10.292-7.932-3.462-16.051-7.003-24.064-8.92l-6.388 6.389c8.585 1.212 17.795 5.233 27.432 9.44 12.311 5.364 25.036 10.903 37.585 10.917zm392.96 691.498c-13.163.146-26.166 4.978-38.744 9.676-12.923 4.805-26.284 9.784-39.833 9.73-10.953-.04-22.054-4.407-33.793-9.014-12.418-4.887-25.261-9.932-38.571-9.853-14.96.106-29.613 5.204-43.787 10.142-14.094 4.911-28.68 9.996-43.241 9.942-12.284-.041-24.224-4.953-36.867-10.173-12.964-5.326-26.367-10.851-40.462-10.811-13.429.066-27.683 5.137-41.457 10.076-13.204 4.711-26.858 9.584-38.929 9.569-11.699-.014-24.33-4.74-36.534-9.333-12.711-4.753-25.86-9.679-38.571-9.64-14.121.039-28.375 5.27-42.151 10.315-13.374 4.911-26.018 9.543-38.024 9.543-10.993-.027-22.973-5.246-34.578-10.305-11.833-5.152-24.05-10.478-35.642-10.438-16.464.039-31.969 5.643-46.968 11.06-13.802 4.992-26.831 9.691-39.409 9.677-10.542-.027-21.787-5.1-32.661-10.013-10.98-4.966-21.362-9.652-31.358-9.64-4.112.013-8.478.439-13.003 1.184l6.709 6.71a61.947 61.947 0 0 1 6.308-.346c8.371-.013 18.02 4.341 28.242 8.947 11.592 5.233 23.585 10.651 35.737 10.692 13.908.013 27.549-4.898 41.99-10.129 14.387-5.205 29.266-10.582 44.426-10.621 10.008-.027 20.988 4.754 32.634 9.826 12.285 5.365 25.008 10.904 37.558 10.917 13.349.014 27.219-5.071 40.634-9.996 13.163-4.832 26.777-9.823 39.568-9.862 11.352-.039 23.278 4.434 35.909 9.187 12.844 4.806 26.113 9.773 39.169 9.786 13.389.028 27.669-5.071 41.471-10.009 13.19-4.699 26.818-9.571 38.956-9.623 12.577-.039 24.716 4.967 37.559 10.252 12.764 5.259 25.954 10.678 39.715 10.731 15.852.041 31.051-5.257 45.744-10.368 14.227-4.938 27.67-9.623 41.365-9.716 11.845-.08 23.997 4.7 35.763 9.333 11.871 4.66 24.156 9.493 36.508 9.52 14.933.08 28.947-5.151 42.509-10.195 12.524-4.672 24.357-9.078 36.187-9.198 12.205-.146 25.834 5.286 39.01 10.505 6.002 2.383 11.871 4.713 17.582 6.537l6.029-6.03c-6.588-1.824-13.59-4.62-20.83-7.496-13.852-5.495-28.174-11.193-41.869-11.048zm.467 23.896c-13.149.133-26.165 4.978-38.743 9.677-12.923 4.805-26.285 9.783-39.834 9.729-10.954-.041-22.053-4.408-33.793-9.014-12.417-4.886-25.26-9.932-38.57-9.853-14.947.093-29.613 5.204-43.775 10.129-14.107 4.925-28.68 9.996-43.254 9.956-12.285-.04-24.224-4.953-36.867-10.172-12.964-5.325-26.367-10.851-40.462-10.811-13.415.053-27.683 5.137-41.458 10.076-13.203 4.712-26.858 9.583-38.928 9.57-11.699-.014-24.317-4.754-36.535-9.334-12.711-4.753-25.847-9.693-38.57-9.64-14.121.039-28.363 5.257-42.151 10.315-13.375 4.912-26.018 9.544-38.011 9.53-11.006-.014-22.986-5.233-34.591-10.292-11.82-5.165-24.051-10.478-35.643-10.465-16.464.066-31.982 5.656-46.967 11.087-13.802 4.992-26.832 9.69-39.422 9.663-10.528-.014-21.774-5.087-32.647-9.999-7.081-3.195-13.923-6.284-20.55-8.068l12.87 12.873c1.517.666 3.035 1.358 4.578 2.051 11.593 5.232 23.598 10.638 35.75 10.678 13.895.027 27.549-4.898 41.977-10.115 14.387-5.204 29.267-10.582 44.438-10.635 10.009-.026 20.989 4.754 32.622 9.839 12.298 5.352 25.008 10.904 37.558 10.918 13.349.014 27.219-5.071 40.634-9.996 13.162-4.833 26.777-9.823 39.568-9.863 11.352-.039 23.278 4.433 35.921 9.173 12.831 4.82 26.101 9.786 39.157 9.8 13.389.027 27.669-5.071 41.471-10.01 13.176-4.712 26.818-9.57 38.956-9.623 12.577-.039 24.729 4.953 37.572 10.238 12.764 5.259 25.941 10.691 39.716 10.732 15.838.054 31.036-5.244 45.73-10.355 14.241-4.952 27.67-9.624 41.365-9.717 11.846-.079 24.01 4.687 35.775 9.32 11.872 4.66 24.157 9.493 36.496 9.533 14.946.067 28.947-5.15 42.509-10.195 12.524-4.672 24.356-9.078 36.187-9.197 12.152-.146 25.727 5.233 38.837 10.438l5.789-5.791c-.931-.373-1.875-.759-2.835-1.131-13.84-5.51-28.175-11.195-41.87-11.049zm-36.054 36.727c-12.923 4.806-26.285 9.784-39.834 9.73-10.953-.041-22.04-4.394-33.792-9.014-12.419-4.886-25.262-9.932-38.571-9.852-14.96.105-29.599 5.217-43.787 10.142-14.094 4.911-28.681 9.996-43.241 9.942-12.285-.04-24.224-4.953-36.881-10.159-12.95-5.339-26.354-10.864-40.447-10.798-13.429.039-27.67 5.124-41.458 10.049-13.204 4.712-26.858 9.584-38.929 9.57-11.7-.014-24.33-4.74-36.548-9.321-12.697-4.766-25.847-9.692-38.557-9.653-14.134.053-28.375 5.27-42.15 10.315-13.376 4.912-26.032 9.557-38.025 9.543-10.98-.013-22.972-5.246-34.578-10.305-11.833-5.152-24.051-10.478-35.643-10.438-16.464.039-31.969 5.643-46.968 11.061-13.802 4.992-26.831 9.69-39.409 9.676-4.204-.027-8.53-.839-12.896-2.117l9.49 9.492c1.117.106 2.249.146 3.381.16 13.921.027 27.549-4.898 41.99-10.129 14.386-5.204 29.266-10.582 44.425-10.621 10.009-.027 21.002 4.766 32.635 9.826 12.285 5.365 25.008 10.904 37.559 10.917 13.349.014 27.217-5.071 40.632-9.996 13.164-4.832 26.765-9.81 39.583-9.85 11.339-.026 23.277 4.434 35.894 9.174 12.844 4.806 26.114 9.772 39.17 9.786 13.389.027 27.67-5.071 41.471-10.009 13.19-4.699 26.818-9.571 38.956-9.623 12.591-.026 24.716 4.967 37.559 10.252 12.764 5.259 25.954 10.678 39.716 10.732 15.85.041 31.063-5.244 45.757-10.355 14.213-4.951 27.656-9.637 41.351-9.729 11.859-.066 24.01 4.713 35.763 9.333 11.872 4.66 24.157 9.493 36.521 9.533 14.919.068 28.934-5.163 42.496-10.208 12.51-4.659 24.343-9.065 36.187-9.198 5.418-.066 11.114.973 16.93 2.611l6.043-6.044c-7.746-2.476-15.493-4.181-23.053-4.101-13.161.146-26.151 4.991-38.742 9.676zm-4.923 24.814c-12.923 4.805-26.284 9.784-39.833 9.729-10.953-.04-22.054-4.407-33.792-9.014-12.419-4.886-25.262-9.932-38.572-9.853-14.96.106-29.613 5.203-43.787 10.142-14.094 4.911-28.681 9.996-43.242 9.942-12.285-.04-24.223-4.953-36.88-10.159-12.951-5.339-26.354-10.864-40.447-10.825-13.43.067-27.684 5.137-41.459 10.076-13.203 4.712-26.858 9.584-38.929 9.57-11.699-.014-24.33-4.74-36.547-9.32-12.698-4.767-25.847-9.693-38.557-9.653-14.122.039-28.376 5.27-42.151 10.315-13.375 4.912-26.019 9.544-38.024 9.543-10.993-.027-22.972-5.246-34.578-10.305-11.833-5.152-24.05-10.478-35.642-10.438-16.464.039-31.969 5.643-46.968 11.061-7.799 2.822-15.371 5.55-22.745 7.387l6.15 6.15c6.295-1.796 12.629-4.086 19.151-6.456 14.387-5.204 29.267-10.582 44.426-10.621 10.008-.027 20.988 4.753 32.634 9.826 12.285 5.365 25.008 10.904 37.56 10.918 13.349.013 27.217-5.071 40.632-9.996 13.163-4.832 26.777-9.824 39.582-9.849 11.326-.039 23.264 4.421 35.895 9.173 12.844 4.807 26.113 9.772 39.169 9.786 13.389.027 27.669-5.071 41.471-10.009 13.19-4.699 26.818-9.57 38.956-9.623 12.578-.039 24.716 4.967 37.559 10.252 12.764 5.259 25.954 10.677 39.716 10.732 15.851.04 31.05-5.258 45.743-10.369 14.227-4.939 27.67-9.624 41.366-9.716 11.844-.08 24.009 4.713 35.762 9.333 11.871 4.66 24.156 9.493 36.521 9.533 14.92.067 28.934-5.163 42.496-10.209 12.391-4.618 24.116-8.998 35.828-9.184l7.148-7.148a54.291 54.291 0 0 0-6.868-.4c-13.164.149-26.167 4.981-38.744 9.679zm-37.251 35.503c-10.927-.04-22.026-4.407-33.778-9.027-12.405-4.873-25.249-9.919-38.557-9.84-14.96.106-29.614 5.204-43.787 10.142-14.094 4.912-28.695 9.984-43.243 9.943-12.283-.041-24.235-4.967-36.88-10.159-12.964-5.352-26.367-10.851-40.461-10.811-13.429.039-27.669 5.124-41.457 10.049-13.204 4.711-26.845 9.597-38.93 9.569-11.699-.013-24.33-4.74-36.534-9.306-12.71-4.78-25.847-9.693-38.57-9.666-14.135.052-28.362 5.283-42.137 10.328-13.376 4.912-26.032 9.557-38.037 9.53-10.98-.014-22.973-5.246-34.565-10.292-11.832-5.152-24.064-10.491-35.656-10.452-16.463.039-31.969 5.643-46.968 11.061-1.717.626-3.421 1.238-5.123 1.85l5.896 5.898c.585-.213 1.198-.426 1.797-.652 14.387-5.204 29.266-10.581 44.425-10.621 10.009-.026 20.989 4.753 32.608 9.826 12.312 5.365 25.036 10.904 37.587 10.918 13.349.014 27.217-5.071 40.633-9.996 13.163-4.832 26.764-9.81 39.568-9.863 11.339-.027 23.278 4.434 35.895 9.173 12.844 4.807 26.127 9.785 39.17 9.813 13.389 0 27.669-5.097 41.484-10.023 13.176-4.711 26.805-9.584 38.942-9.61 12.591-.053 24.717 4.94 37.573 10.239 12.75 5.246 25.953 10.678 39.716 10.732 15.851.04 31.036-5.244 45.743-10.369 14.214-4.951 27.642-9.624 41.365-9.716 11.845-.079 23.997 4.701 35.75 9.32 11.885 4.673 24.156 9.493 36.508 9.546 13.935.04 27.085-4.485 39.794-9.211l12.523-12.526c-4.179 1.383-8.318 2.941-12.43 4.472-12.925 4.806-26.289 9.784-39.864 9.731zm-32.301 16.465c-12.417-4.886-25.26-9.932-38.557-9.84-14.947.093-29.613 5.204-43.787 10.143-14.107 4.898-28.695 9.983-43.255 9.929-12.284-.04-24.223-4.953-36.868-10.172-12.964-5.326-26.366-10.851-40.447-10.798-13.443.053-27.683 5.137-41.472 10.062-13.202 4.712-26.844 9.597-38.928 9.57-11.699-.013-24.33-4.74-36.534-9.333-12.711-4.753-25.847-9.666-38.571-9.64-14.121.039-28.375 5.271-42.137 10.329-13.389 4.898-26.019 9.544-38.038 9.53-10.979-.013-22.972-5.246-34.564-10.292-11.833-5.153-24.063-10.491-35.656-10.451-11.898.026-23.29 2.954-34.351 6.641l5.976 5.978c9.331-2.889 18.82-5.058 28.402-5.084 10.008-.027 20.988 4.753 32.621 9.812 12.299 5.379 25.023 10.917 37.573 10.931 13.348.014 27.218-5.071 40.633-9.996 13.163-4.832 26.764-9.837 39.568-9.864 11.352-.039 23.278 4.434 35.896 9.174 12.844 4.807 26.125 9.786 39.182 9.8 13.375.013 27.656-5.084 41.472-10.009 13.175-4.711 26.803-9.583 38.955-9.623 12.577-.04 24.702 4.953 37.545 10.239 12.765 5.259 25.968 10.691 39.716 10.731 15.865.054 31.064-5.244 45.758-10.355 14.214-4.951 27.655-9.637 41.351-9.729 11.858-.067 24.01 4.714 35.763 9.333 11.885 4.673 24.157 9.493 36.521 9.533a57.4 57.4 0 0 0 3.726-.106l8.624-8.626c-4.073.772-8.199 1.225-12.325 1.199-10.939-.029-22.039-4.395-33.792-9.016zm-43.001 13.937c-14.96.106-29.614 5.204-43.787 10.142-14.107 4.898-28.694 9.983-43.255 9.929-12.284-.04-24.223-4.953-36.881-10.159-12.951-5.339-26.365-10.851-40.447-10.798-13.43.039-27.669 5.124-41.458 10.049-13.203 4.712-26.858 9.584-38.929 9.57-11.699-.014-24.33-4.74-36.547-9.32-12.698-4.766-25.848-9.693-38.557-9.653-14.135.053-28.375 5.27-42.137 10.328-13.389 4.898-26.047 9.544-38.038 9.53-10.979-.014-22.973-5.246-34.564-10.292-11.833-5.153-24.064-10.492-35.657-10.452-4.005.013-7.945.359-11.831.945l6.801 6.802a63.43 63.43 0 0 1 5.045-.226c10.008-.026 21.001 4.767 32.634 9.826 12.285 5.365 25.01 10.904 37.56 10.917 13.349.014 27.217-5.071 40.646-9.982 13.164-4.833 26.752-9.824 39.568-9.863 11.339-.026 23.278 4.434 35.896 9.174 12.844 4.806 26.113 9.773 39.168 9.786 13.389.028 27.67-5.07 41.473-10.008 13.189-4.699 26.818-9.571 38.955-9.624 12.591-.026 24.715 4.967 37.56 10.252 12.763 5.259 25.953 10.678 39.714 10.732 15.852.04 31.051-5.231 45.758-10.355 14.214-4.951 27.655-9.637 41.351-9.729 11.858-.067 24.01 4.714 35.762 9.333 7.4 2.903 14.974 5.872 22.626 7.723l6.375-6.377c-8.505-1.399-17.182-4.807-26.247-8.362-12.418-4.885-25.261-9.931-38.557-9.838zm2.463 29.3c-14.947.12-29.6 5.217-43.774 10.155-14.107 4.899-28.695 9.983-43.255 9.93-12.285-.041-24.223-4.953-36.881-10.159-12.951-5.339-26.353-10.864-40.448-10.798-13.429.039-27.67 5.124-41.458 10.049-13.202 4.712-26.858 9.583-38.928 9.57-11.699-.014-24.33-4.74-36.547-9.321-12.698-4.766-25.848-9.692-38.559-9.653-14.133.052-28.375 5.27-42.15 10.315-13.375 4.912-26.032 9.557-38.024 9.543-10.979-.013-22.972-5.246-34.564-10.292-6.108-2.649-12.325-5.379-18.5-7.349l13.27 13.273c.746.319 1.477.652 2.222.972 12.285 5.365 25.008 10.904 37.559 10.918 13.349.014 27.218-5.071 40.634-9.996 13.162-4.832 26.764-9.81 39.581-9.849 11.339-.026 23.278 4.434 35.896 9.173 12.844 4.806 26.113 9.773 39.168 9.787 13.389.027 27.67-5.071 41.471-10.009 13.19-4.699 26.818-9.571 38.957-9.623 12.59-.026 24.715 4.966 37.559 10.252 12.764 5.259 25.954 10.677 39.715 10.731 15.852.041 31.064-5.243 45.757-10.355 14.214-4.952 27.656-9.637 41.352-9.729 11.512-.066 23.305 4.434 34.738 8.921l5.803-5.804c-.666-.266-1.358-.533-2.024-.799-12.417-4.886-25.26-9.932-38.57-9.853zm-41.085 34.97c-14.107 4.898-28.693 9.983-43.254 9.929-12.285-.041-24.224-4.953-36.881-10.159-12.949-5.339-26.353-10.864-40.447-10.798-13.429.04-27.669 5.124-41.457 10.049-13.204 4.712-26.858 9.584-38.929 9.57-11.699-.014-24.33-4.74-36.548-9.32-12.698-4.767-25.847-9.693-38.557-9.653-14.134.052-28.375 5.27-42.137 10.329-13.389 4.898-26.046 9.544-38.037 9.53-5.271 0-10.768-1.239-16.344-3.036l10.115 10.118c2.076.293 4.152.453 6.228.453 13.336 0 27.205-5.084 40.634-9.996 13.162-4.832 26.751-9.823 39.567-9.863 11.34-.026 23.279 4.434 35.895 9.174 12.844 4.806 26.113 9.772 39.17 9.786 13.389.027 27.669-5.071 41.471-10.009 13.19-4.699 26.818-9.57 38.956-9.624 12.591-.026 24.716 4.967 37.559 10.252 12.764 5.259 25.954 10.678 39.715 10.731 15.864.054 31.064-5.244 45.757-10.355 14.214-4.952 27.657-9.637 41.352-9.73 4.711-.027 9.476.719 14.241 1.918l6.135-6.137c-6.682-1.997-13.483-3.342-20.417-3.302-14.958.107-29.612 5.205-43.787 10.143zm-44.265 36.181c-12.285-.04-24.223-4.953-36.867-10.172-12.964-5.326-26.366-10.851-40.46-10.811-13.417.052-27.67 5.15-41.459 10.075-13.202 4.712-26.858 9.584-38.929 9.57-11.699-.013-24.316-4.753-36.533-9.333-12.711-4.753-25.848-9.692-38.571-9.64-14.122.039-28.362 5.257-42.151 10.315-8.824 3.235-17.328 6.362-25.527 8.093l6.23 6.23c7.333-1.903 14.666-4.606 21.893-7.255 13.162-4.832 26.777-9.823 39.581-9.85 11.339-.052 23.265 4.421 35.909 9.161 12.83 4.82 26.099 9.786 39.156 9.799 13.389.027 27.67-5.07 41.471-10.009 13.19-4.699 26.818-9.57 38.956-9.623 12.591-.026 24.729 4.953 37.572 10.239 12.765 5.259 25.941 10.691 39.716 10.731 15.839.054 31.051-5.23 45.757-10.355 10.781-3.753 21.109-7.347 31.436-8.891l8.319-8.32c-14.428.399-28.562 5.324-42.243 10.089-14.108 4.926-28.682 9.998-43.256 9.957zm-1.448 26.132c-12.285-.04-24.237-4.967-36.881-10.158-12.963-5.353-26.367-10.85-40.46-10.812-13.429.039-27.683 5.137-41.458 10.049-13.204 4.712-26.858 9.61-38.929 9.596-11.7-.04-24.33-4.767-36.535-9.333-12.697-4.767-25.847-9.693-38.557-9.653-14.147.04-28.375 5.27-42.15 10.315-1.477.546-2.954 1.092-4.419 1.625l5.87 5.87c.372-.133.758-.279 1.13-.412 13.164-4.832 26.778-9.823 39.583-9.876 11.339-.026 23.263 4.447 35.894 9.174 12.844 4.806 26.114 9.799 39.17 9.813 13.389.027 27.656-5.085 41.471-10.009 13.19-4.725 26.818-9.597 38.956-9.624 12.59-.052 24.729 4.953 37.572 10.239 12.751 5.246 25.954 10.678 39.716 10.732 14.694.054 28.828-4.499 42.523-9.25l12.085-12.088c-3.82 1.238-7.586 2.556-11.34 3.86-14.095 4.911-28.682 9.996-43.241 9.942zm-35.855 15.494c-12.964-5.353-26.38-10.864-40.461-10.812-13.429.04-27.683 5.137-41.458 10.049-13.203 4.713-26.845 9.597-38.929 9.57-11.699-.013-24.33-4.74-36.548-9.32-12.697-4.766-25.834-9.679-38.557-9.653-9.489.039-19.005 2.395-28.401 5.483l6.002 6.004c7.586-2.29 15.132-3.926 22.427-3.953 11.339-.026 23.264 4.448 35.894 9.174 12.843 4.806 26.127 9.786 39.17 9.813 13.389 0 27.656-5.084 41.471-10.009 13.19-4.726 26.818-9.597 38.956-9.623 12.591-.053 24.716 4.94 37.572 10.239 12.751 5.245 25.954 10.677 39.703 10.718a70.924 70.924 0 0 0 6.934-.306l8.957-8.959c-5.27 1.091-10.554 1.744-15.851 1.744-12.299-.054-24.238-4.966-36.881-10.159zm-40.926 11.593c-13.417.053-27.683 5.137-41.445 10.062-13.216 4.726-26.872 9.597-38.943 9.583-11.685-.027-24.316-4.753-36.533-9.333-12.698-4.766-25.848-9.693-38.571-9.64-3.381 0-6.762.319-10.141.852l6.787 6.79a41.328 41.328 0 0 1 3.381-.133c11.339-.026 23.265 4.447 35.909 9.187 12.831 4.793 26.1 9.786 39.155 9.8 13.389.027 27.67-5.071 41.472-10.009 13.189-4.725 26.831-9.583 38.955-9.623 12.591-.052 24.729 4.953 37.573 10.239 8.478 3.501 17.143 7.056 26.047 9.067l6.428-6.43c-9.769-1.438-19.459-5.432-29.613-9.599-12.951-5.34-26.366-10.851-40.461-10.813zm4.3 26.958c-13.429.039-27.683 5.137-41.458 10.048-13.203 4.712-26.858 9.584-38.929 9.57-11.699-.013-24.33-4.74-36.547-9.32-8.359-3.142-16.944-6.351-25.435-8.161l10.914 10.917c3.9 1.318 7.852 2.796 11.886 4.3 12.844 4.806 26.113 9.773 39.156 9.8 13.402.013 27.683-5.084 41.484-10.023 13.189-4.698 26.818-9.57 38.942-9.61 12.604-.039 24.729 4.953 37.573 10.239.919.386 1.836.746 2.755 1.131l5.776-5.777a939.77 939.77 0 0 1-5.67-2.317c-12.95-5.338-26.365-10.85-40.447-10.797zm-44.412 36.301c-13.203 4.711-26.858 9.583-38.929 9.569-5.923-.013-12.085-1.225-18.314-3.009l9.903 9.905c2.808.413 5.589.639 8.384.639 13.403.014 27.67-5.071 41.472-10.009 13.202-4.712 26.831-9.584 38.955-9.623 7.973-.04 15.745 1.957 23.638 4.767l5.855-5.857c-9.543-3.608-19.352-6.471-29.519-6.445-13.415.053-27.682 5.138-41.445 10.063zm7.987 23.962c-12.962 4.632-26.365 9.411-38.276 9.557l7.041 7.042c11.086-1.397 22.585-5.524 33.765-9.516 11.858-4.22 24.077-8.586 35.243-9.451l7.56-7.561a53.416 53.416 0 0 0-3.887-.134c-13.417.054-27.685 5.139-41.446 10.063zm-18.073 29.766l6.269 6.27c5.39-1.371 10.808-3.141 16.198-5.018l12.351-12.353c-2.821.959-5.643 1.97-8.425 2.969-8.811 3.141-17.809 6.362-26.393 8.132z"/></svg>