<svg xmlns="http://www.w3.org/2000/svg" width="2316" height="150" viewBox="0 0 2316 150"><path fill="none" d="M1228.5 88.17l-.5.28"/><path fill="#F9F9F9" d="M-1.01 99.02c.31-.14.64-.3 1-.45v-1.06l-1 1.51zm0 6c.31-.15.65-.3 1-.45v-1.06l-1 1.51zm0 7c.31-.14.64-.3 1-.45v-1.06l-1 1.51zm0 6c.31-.15.64-.3 1-.45v-1.06l-1 1.51zm0 5c.31-.15.65-.3 1-.45v-1.06l-1 1.51zm0 7c.31-.15.65-.3 1-.45v-1.06l-1 1.51zm0 7c.31-.15.65-.3 1-.46v-1.05l-1 1.51zm1228.93-22.68l.08.11.5-.28c-.2.05-.39.11-.58.17zm0-13l.08.11.5-.28c-.2.05-.39.11-.58.17z"/><path fill="none" d="M1228 88.45l-.08-.11"/><path fill="#F9F9F9" d="M1227.92 101.34l.08.11.5-.28c-.2.05-.39.11-.58.17z"/><path fill="#F9F9F9" d="M1227.92 101.34l.08.11.5-.28c-.2.05-.39.11-.58.17zm0 13l.08.11.5-.28c-.2.05-.39.11-.58.17zm1088.09-67.76c-.77.58-19.37 13.82-54.32 10.8-8.03-.68-16.8-4.66-26.07-8.88-11.84-5.39-25.28-11.5-38.55-10.97-10.04.39-20.69 4.7-31.98 9.27-14.22 5.74-28.92 11.7-45.36 11.49-11.4-.16-23.59-5-36.49-10.14-13.03-5.17-26.53-10.54-38.61-10.39-11.7.12-23.41 4.48-35.81 9.1-13.42 4.99-27.27 10.16-42.06 10.09-12.21-.04-24.37-4.82-36.13-9.45-11.63-4.57-23.67-9.29-35.39-9.21-13.55.09-26.84 4.72-40.92 9.6-14.55 5.07-29.59 10.32-45.26 10.26-13.63-.04-26.69-5.42-39.3-10.62-12.71-5.23-24.73-10.18-37.18-10.13-12.02.05-25.51 4.86-38.55 9.53-13.66 4.88-27.79 9.93-41.04 9.9-12.92-.01-26.07-4.94-38.76-9.71-12.5-4.68-24.3-9.1-35.54-9.07-12.65.04-26.13 4.98-39.15 9.76-13.28 4.88-27 9.91-40.21 9.9-12.42-.02-25-5.51-37.17-10.81-11.51-5.03-22.37-9.76-32.28-9.73-15 .03-29.74 5.37-43.97 10.52-14.28 5.16-27.79 10.04-41.54 10.01-12.03-.04-23.91-5.39-35.38-10.57-10.11-4.56-19.65-8.88-27.95-8.88-13.35.03-31.23 5.46-47 10.24a957.6 957.6 0 0 0-5.53 1.68h-.01c-6.2 3.56-23.72 11.64-51.81 9.21-8.03-.68-16.8-4.66-26.07-8.88-11.84-5.39-25.28-11.5-38.55-10.97-10.04.39-20.69 4.7-31.98 9.27-14.22 5.74-28.92 11.7-45.36 11.49-11.4-.16-23.59-5-36.49-10.14-13.03-5.17-26.53-10.54-38.61-10.39-11.7.12-23.41 4.48-35.81 9.1-13.42 4.99-27.27 10.15-42.06 10.09-12.21-.04-24.37-4.82-36.13-9.45-11.63-4.57-23.67-9.29-35.39-9.21-13.55.09-26.84 4.72-40.92 9.6-14.55 5.07-29.59 10.32-45.26 10.26-13.63-.04-26.69-5.42-39.3-10.62-12.71-5.23-24.72-10.18-37.18-10.13-12.01.05-25.51 4.86-38.55 9.53-13.66 4.88-27.79 9.93-41.04 9.9-12.92-.01-26.06-4.94-38.76-9.71-12.5-4.68-24.3-9.1-35.54-9.07-12.65.04-26.13 4.98-39.15 9.76-13.28 4.88-27 9.91-40.21 9.9-12.42-.02-25-5.51-37.17-10.81-11.51-5.03-22.37-9.76-32.28-9.73-15 .03-29.74 5.37-43.97 10.52-14.28 5.16-27.79 10.04-41.54 10.01-12.03-.04-23.91-5.39-35.38-10.57-10.11-4.56-19.65-8.88-27.94-8.88-13.36.03-31.24 5.46-47.01 10.24-14.37 4.36-27.93 8.49-37.31 8.44-20.97-.13-32.29-4.9-43.25-9.51-7.98-3.35-15.52-6.51-26.75-7.87C21.29 39.1 5.5 44.99-1.01 48.02l7.06-10.67c8.93-2.74 21.57-5.01 36.57-3.2 12.28 1.47 20.64 4.99 28.74 8.4 10.76 4.52 20.92 8.8 40.42 8.92 8.23.04 21.28-3.92 35.09-8.11 17.08-5.18 34.71-10.54 49.16-10.55 9.89-.01 20.17 4.62 31.02 9.52 10.79 4.87 21.9 9.9 32.32 9.91 12.46.03 25.37-4.63 39.01-9.56 14.84-5.36 30.18-10.91 46.48-10.97 11.47-.01 23.57 5.24 35.27 10.35 11.48 5.01 23.33 10.18 34.23 10.19 11.86.01 24.38-4.57 37.61-9.43 13.65-5.01 27.74-10.17 41.71-10.21 12.59-.05 25.59 4.84 38.17 9.54 12.09 4.53 24.59 9.21 36.15 9.24 11.95.01 25.46-4.81 38.52-9.47 13.63-4.89 27.75-9.92 41.03-9.97 13.95-.04 27.21 5.42 40.04 10.69 12.5 5.16 24.32 10.03 36.49 10.06 14.41.05 28.83-4.97 42.79-9.84 14.03-4.89 28.53-9.93 43.32-10.02 13.17-.08 25.88 4.91 38.17 9.75 11.61 4.55 22.61 8.86 33.44 8.92 13.41.05 26.63-4.88 39.43-9.65 12.43-4.63 25.31-9.43 38.32-9.56 13.56-.14 27.74 5.48 41.44 10.94 12.26 4.86 23.81 9.46 33.83 9.58 14.95.19 28.95-5.46 42.49-10.94 4.3-1.74 8.51-3.44 12.68-4.93l1.06-1.6c8.93-2.74 21.57-5.01 36.57-3.2 12.28 1.47 20.64 4.99 28.74 8.4 10.76 4.52 20.92 8.8 40.42 8.92 6.95.03 17.33-2.78 28.7-6.19.01.01.01 0 .02 0 .45-.13.9-.27 1.35-.4 1.66-.5 3.33-1.01 5.02-1.52 17.08-5.18 34.71-10.54 49.16-10.55 9.89-.01 20.17 4.62 31.02 9.52 10.78 4.87 21.9 9.9 32.32 9.91 12.46.03 25.36-4.63 39.01-9.56 14.84-5.36 30.18-10.91 46.48-10.97 11.47-.01 23.57 5.24 35.27 10.35 11.48 5.01 23.33 10.18 34.23 10.19 11.86.01 24.38-4.57 37.61-9.43 13.65-5.01 27.74-10.17 41.71-10.21 12.59-.05 25.59 4.84 38.17 9.54 12.09 4.53 24.59 9.21 36.15 9.24 11.95.01 25.46-4.81 38.52-9.47 13.64-4.89 27.75-9.92 41.03-9.97 13.95-.04 27.21 5.42 40.04 10.69 12.5 5.16 24.32 10.03 36.49 10.06 14.41.05 28.83-4.97 42.79-9.84 14.03-4.89 28.53-9.93 43.32-10.02 13.17-.08 25.88 4.91 38.17 9.75 11.61 4.55 22.61 8.86 33.44 8.92 13.41.05 26.63-4.88 39.43-9.65 12.43-4.63 25.31-9.43 38.32-9.56 13.56-.14 27.74 5.48 41.44 10.94 12.26 4.86 23.81 9.46 33.83 9.58 14.95.19 28.95-5.46 42.49-10.94 11.89-4.8 23.14-9.36 34.48-9.8 15.03-.59 29.32 5.91 41.92 11.64 8.67 3.95 16.86 7.67 23.63 8.25 31.94 2.75 49.12-9.28 49.28-9.41l4.39 6.02z"/><path fill="#F9F9F9" d="M1226.62 42.56c-.02.02-.4.29-1.12.72.45-.13.9-.27 1.35-.4l-.23-.32zm1090.39-24.98c-.77.58-19.37 13.82-54.32 10.8-8.03-.68-16.8-4.66-26.07-8.88-11.84-5.39-25.28-11.5-38.55-10.97-10.04.39-20.69 4.7-31.98 9.27-14.22 5.74-28.92 11.7-45.36 11.49-11.4-.16-23.59-5-36.49-10.14-13.03-5.17-26.53-10.54-38.61-10.39-11.7.12-23.41 4.48-35.81 9.1-13.42 4.99-27.27 10.16-42.06 10.09-12.21-.04-24.37-4.82-36.13-9.45-11.63-4.57-23.67-9.29-35.39-9.21-13.55.09-26.84 4.72-40.92 9.6-14.55 5.07-29.59 10.32-45.26 10.26-13.63-.04-26.69-5.42-39.3-10.62-12.71-5.23-24.72-10.18-37.18-10.13-12.01.05-25.51 4.86-38.55 9.53-13.66 4.88-27.79 9.93-41.04 9.9-12.92-.01-26.06-4.94-38.76-9.71-12.5-4.68-24.3-9.1-35.54-9.07-12.65.04-26.13 4.98-39.15 9.76-13.28 4.88-27 9.91-40.21 9.9-12.42-.02-25-5.51-37.17-10.81-11.51-5.03-22.37-9.76-32.28-9.74-15 .04-29.74 5.38-43.97 10.53-14.28 5.16-27.79 10.04-41.54 10.01-12.03-.04-23.91-5.39-35.38-10.57-10.11-4.56-19.65-8.88-27.94-8.88-13.36.03-31.24 5.46-47.01 10.24a957.6 957.6 0 0 0-5.53 1.68h-.01c-6.2 3.56-23.72 11.64-51.81 9.21-8.03-.68-16.8-4.66-26.07-8.88-11.84-5.39-25.28-11.5-38.55-10.97-10.04.39-20.69 4.7-31.98 9.27-14.22 5.74-28.92 11.7-45.36 11.49-11.4-.16-23.59-5-36.49-10.14-13.03-5.17-26.53-10.54-38.61-10.39-11.7.12-23.41 4.48-35.81 9.1-13.42 4.99-27.27 10.15-42.06 10.09-12.21-.04-24.37-4.82-36.13-9.45-11.63-4.57-23.67-9.29-35.39-9.21-13.55.09-26.84 4.72-40.92 9.6-14.55 5.07-29.59 10.32-45.26 10.26-13.63-.04-26.69-5.42-39.3-10.62-12.71-5.23-24.73-10.18-37.18-10.13-12.02.05-25.51 4.86-38.55 9.53-13.66 4.88-27.79 9.93-41.04 9.9-12.92-.01-26.07-4.94-38.76-9.71-12.5-4.68-24.3-9.1-35.54-9.07-12.65.04-26.13 4.98-39.15 9.76-13.28 4.88-27 9.91-40.21 9.9-12.42-.02-25-5.51-37.17-10.81-11.51-5.03-22.37-9.76-32.28-9.73-15 .03-29.73 5.37-43.97 10.52-14.28 5.16-27.79 10.04-41.54 10.01-12.03-.04-23.91-5.39-35.38-10.57-10.11-4.56-19.65-8.88-27.95-8.88-13.35.03-31.23 5.46-47 10.24-14.37 4.36-27.93 8.49-37.31 8.44-20.97-.13-32.29-4.9-43.25-9.51-7.98-3.35-15.52-6.51-26.75-7.87C22.29 10.1 6.5 15.99-.01 19.02L7.05 8.35c8.93-2.74 21.57-5.01 36.57-3.2 12.28 1.47 20.64 4.99 28.74 8.4 10.76 4.52 20.92 8.8 40.42 8.92 8.23.04 21.29-3.92 35.09-8.11 17.08-5.18 34.71-10.54 49.16-10.55 9.89-.01 20.17 4.62 31.02 9.52 10.79 4.87 21.9 9.9 32.32 9.91 12.46.03 25.36-4.63 39.01-9.56 14.84-5.36 30.18-10.91 46.48-10.97 11.47-.01 23.57 5.24 35.27 10.35 11.48 5.01 23.33 10.18 34.23 10.19 11.86.01 24.38-4.57 37.61-9.43 13.65-5.01 27.74-10.17 41.71-10.21 12.59-.05 25.59 4.84 38.17 9.54 12.09 4.53 24.59 9.21 36.15 9.24 11.95.01 25.46-4.81 38.52-9.47 13.64-4.89 27.75-9.92 41.03-9.97 13.95-.04 27.21 5.42 40.04 10.69 12.5 5.16 24.32 10.03 36.49 10.06 14.41.05 28.83-4.97 42.79-9.84 14.03-4.89 28.53-9.93 43.32-10.02 13.17-.08 25.88 4.91 38.17 9.75 11.61 4.55 22.61 8.86 33.44 8.92 13.41.05 26.63-4.88 39.43-9.65 12.43-4.63 25.31-9.43 38.33-9.56 13.55-.14 27.73 5.48 41.43 10.94 12.26 4.86 23.81 9.46 33.83 9.58 14.95.19 28.95-5.46 42.49-10.94 4.3-1.74 8.51-3.44 12.68-4.93l1.06-1.6c8.93-2.74 21.57-5.01 36.57-3.2 12.28 1.47 20.64 4.99 28.74 8.4 10.76 4.52 20.92 8.8 40.42 8.92 6.95.03 17.33-2.78 28.7-6.19.01.01.01 0 .02 0 .45-.13.9-.27 1.35-.4 1.66-.5 3.33-1.01 5.02-1.52 17.08-5.18 34.71-10.54 49.16-10.55 9.89-.01 20.17 4.62 31.02 9.52 10.79 4.87 21.9 9.9 32.32 9.91 12.46.03 25.36-4.63 39.01-9.56 14.84-5.36 30.18-10.91 46.48-10.97 11.47-.01 23.57 5.24 35.27 10.35 11.48 5.01 23.34 10.18 34.23 10.19 11.86.01 24.38-4.57 37.61-9.43 13.65-5.01 27.74-10.17 41.71-10.21 12.59-.05 25.59 4.84 38.17 9.54 12.09 4.53 24.59 9.21 36.15 9.24 11.95.01 25.46-4.81 38.52-9.47 13.64-4.89 27.75-9.92 41.03-9.97 13.95-.04 27.21 5.42 40.04 10.69 12.5 5.16 24.32 10.03 36.49 10.06 14.41.05 28.83-4.97 42.79-9.84 14.03-4.89 28.53-9.93 43.32-10.02 13.17-.08 25.88 4.91 38.17 9.75 11.61 4.55 22.61 8.86 33.44 8.92 13.41.05 26.63-4.88 39.43-9.65 12.43-4.63 25.31-9.43 38.32-9.56 13.56-.14 27.74 5.48 41.44 10.94 12.26 4.86 23.81 9.46 33.83 9.58 14.95.19 28.95-5.46 42.49-10.94 11.89-4.8 23.14-9.36 34.48-9.8 15.03-.59 29.32 5.91 41.92 11.64 8.67 3.95 16.86 7.67 23.63 8.25 31.94 2.75 49.13-9.28 49.28-9.41l4.39 6.02z"/><path fill="#F9F9F9" d="M1227.62 13.56c-.02.02-.4.29-1.12.72.45-.13.9-.27 1.35-.4l-.23-.32zm1085.9 67.6c1.51-.87 2.34-1.47 2.49-1.58l-4.39-6.02c-.16.13-17.34 12.16-49.28 9.41-6.77-.58-14.96-4.3-23.63-8.25-12.6-5.73-26.89-12.23-41.92-11.64-11.34.44-22.59 5-34.48 9.8-13.54 5.48-27.54 11.13-42.49 10.94-10.02-.12-21.57-4.72-33.83-9.58-13.7-5.46-27.88-11.08-41.44-10.94-13.01.13-25.89 4.93-38.32 9.56-12.8 4.77-26.02 9.7-39.43 9.65-10.83-.06-21.83-4.37-33.44-8.92-12.29-4.84-25-9.83-38.17-9.75-14.79.09-29.29 5.13-43.32 10.02-13.96 4.87-28.38 9.89-42.79 9.84-12.17-.03-23.99-4.9-36.49-10.06-12.83-5.27-26.09-10.73-40.04-10.69-13.28.05-27.39 5.08-41.03 9.97-13.06 4.66-26.57 9.48-38.52 9.47-11.56-.03-24.06-4.71-36.15-9.24-12.58-4.7-25.58-9.59-38.17-9.54-13.97.04-28.06 5.2-41.71 10.21-13.23 4.86-25.75 9.44-37.61 9.43-10.9-.01-22.75-5.18-34.23-10.18-11.7-5.12-23.8-10.37-35.27-10.36-16.3.06-31.64 5.61-46.48 10.97-13.65 4.93-26.55 9.59-39.01 9.56-10.42-.01-21.54-5.04-32.32-9.9-10.85-4.91-21.13-9.54-31.02-9.53-14.45.01-32.08 5.37-49.16 10.55-1.69.51-3.36 1.02-5.02 1.52-.45.13-.9.27-1.35.4-.01 0-.01.01-.02 0-11.37 3.41-21.75 6.22-28.7 6.19-19.5-.12-29.66-4.4-40.42-8.92-8.1-3.41-16.46-6.93-28.74-8.4-15-1.81-27.64.46-36.57 3.2l-1.06 1.6c-4.17 1.49-8.38 3.19-12.68 4.93-13.54 5.48-27.54 11.13-42.49 10.94-10.02-.12-21.57-4.72-33.83-9.58-13.7-5.46-27.88-11.08-41.44-10.94-13.01.13-25.89 4.93-38.32 9.56-12.8 4.77-26.02 9.7-39.43 9.65-10.83-.06-21.83-4.37-33.44-8.92-12.29-4.84-25-9.83-38.17-9.75-14.79.09-29.29 5.13-43.32 10.02-13.96 4.87-28.38 9.89-42.79 9.84-12.17-.03-23.99-4.9-36.49-10.06-12.83-5.27-26.09-10.73-40.04-10.69-13.28.05-27.4 5.08-41.03 9.97-13.06 4.66-26.57 9.48-38.52 9.47-11.56-.03-24.06-4.71-36.15-9.24-12.58-4.7-25.58-9.59-38.17-9.54-13.97.04-28.06 5.2-41.71 10.21-13.23 4.86-25.75 9.44-37.61 9.43-10.9-.01-22.75-5.18-34.23-10.18-11.7-5.12-23.8-10.37-35.27-10.36-16.3.06-31.64 5.61-46.48 10.97-13.64 4.93-26.55 9.59-39.01 9.56-10.42-.01-21.53-5.04-32.32-9.9-10.85-4.91-21.13-9.54-31.02-9.53-14.45.01-32.08 5.37-49.16 10.55-13.81 4.19-26.86 8.15-35.09 8.11-19.5-.12-29.66-4.4-40.42-8.92-8.1-3.41-16.46-6.93-28.74-8.4-15-1.81-27.64.46-36.57 3.2l-7.06 10.67c1.21-.57 2.75-1.23 4.58-1.92l-4.58 6.92c1.4-.65 3.23-1.44 5.45-2.24l-5.45 8.24c1.58-.74 3.71-1.64 6.32-2.55l-3.95 5.97-1.37 2.07v1.06c1.23-.55 2.72-1.17 4.45-1.79l-4.45 6.73v1.06c1.44-.65 3.23-1.37 5.32-2.1l-5.32 8.04v1.06c1.23-.55 2.72-1.17 4.45-1.79l-4.45 6.73v1.06c1.02-.46 2.22-.96 3.58-1.47l-3.58 5.41v1.06c1.44-.65 3.23-1.37 5.32-2.1l-5.32 8.04v1.06c1.44-.65 3.23-1.37 5.32-2.1l-5.32 8.04V150h2316.02v-14.42l-3.53-4.84c2.16-1.17 3.35-2.02 3.53-2.16l-3.53-4.84c2.16-1.17 3.35-2.02 3.53-2.16l-2.49-3.42c1.51-.87 2.34-1.47 2.49-1.58l-3.01-4.13c1.84-1.02 2.84-1.74 3.01-1.87l-3.53-4.84c2.16-1.17 3.35-2.02 3.53-2.16l-3.01-4.13c1.84-1.02 2.84-1.74 3.01-1.87l-1.56-2.14-1.97-2.7c2.16-1.17 3.35-2.02 3.53-2.16l-3.01-4.13c1.84-1.02 2.84-1.74 3.01-1.87l-2.49-3.42zM1228 114.45l-.08-.11c.19-.06.38-.12.58-.17l-.5.28zm0-13l-.08-.11c.19-.06.38-.12.58-.17l-.5.28z"/><path fill="#F9F9F9" d="M1.36 95.44l-1.37 2.07v-2.07zm2.21 20.66l-3.58 5.41v-3.94c1.02-.46 2.22-.96 3.58-1.47zm.87-6.32l-4.45 6.73v-4.94c1.23-.55 2.72-1.17 4.45-1.79zm0-13l-4.45 6.73v-4.94c1.23-.55 2.72-1.17 4.45-1.79zm.87 30.69l-5.32 8.04v-5.94c1.44-.65 3.23-1.37 5.32-2.1zm0-7l-5.32 8.04v-5.94c1.44-.65 3.23-1.37 5.32-2.1zm0-18l-5.32 8.04v-5.94c1.44-.65 3.23-1.37 5.32-2.1zm1223.19 11.7l-.5.28-.08-.11c.19-.06.38-.12.58-.17zm0-13l-.5.28-.08-.11c.19-.06.38-.12.58-.17zm1087.51-5.73v2.14l-1.56-2.14zm0 2.14v6l-3.01-4.13c1.84-1.02 2.84-1.74 3.01-1.87zm0 6v7l-3.53-4.84c2.16-1.17 3.35-2.02 3.53-2.16zm0 7v6l-3.01-4.13c1.84-1.02 2.84-1.74 3.01-1.87zm0 6v5l-2.49-3.42c1.51-.87 2.34-1.47 2.49-1.58z"/><path fill="#F9F9F9" d="M2316.01 121.58v7l-3.53-4.84c2.16-1.17 3.35-2.02 3.53-2.16zm0 7v7l-3.53-4.84c2.16-1.17 3.35-2.02 3.53-2.16z"/></svg>