<svg xmlns="http://www.w3.org/2000/svg" width="29" height="11" viewBox="0 0 29 11"><path fill-rule="evenodd" clip-rule="evenodd" fill="#FFA524" d="M28.73 8.73c-.34.3-.87.28-1.17-.06-1.06-1.15-2.48-1.79-3.99-1.79s-2.93.64-4 1.79c-1.38 1.51-3.23 2.34-5.21 2.34s-3.83-.83-5.22-2.34C8.08 7.52 6.66 6.88 5.16 6.88c-1.51 0-2.93.64-4 1.79-.35.39-.75.71-1.16 1.01V7.51c1.38-1.46 3.2-2.27 5.15-2.27h.01c1.98 0 3.83.83 5.21 2.33 1.07 1.16 2.48 1.8 3.99 1.8s2.93-.64 3.99-1.8c1.39-1.5 3.24-2.33 5.22-2.33s3.83.83 5.21 2.33c.31.34.29.86-.05 1.16z"/><path fill-rule="evenodd" clip-rule="evenodd" fill="#FFA524" d="M28.73 3.49c-.34.3-.87.28-1.17-.05-1.06-1.16-2.48-1.8-3.99-1.8s-2.93.64-4 1.8c-1.38 1.5-3.23 2.33-5.21 2.33s-3.83-.83-5.22-2.33c-1.06-1.16-2.48-1.8-3.98-1.8-1.51 0-2.93.64-4 1.8-.35.38-.75.7-1.16 1V2.27C1.38.81 3.2 0 5.15 0h.01c1.98 0 3.83.83 5.21 2.33 1.07 1.16 2.48 1.8 3.99 1.8s2.93-.64 3.99-1.8C19.74.83 21.59 0 23.57 0s3.83.83 5.21 2.33c.31.34.29.86-.05 1.16z"/></svg>