<svg xmlns="http://www.w3.org/2000/svg" width="140" height="262" viewBox="0 0 140 262"><path fill-rule="evenodd" clip-rule="evenodd" fill="#F9F9F9" d="M-.003.01c7.96 2.267 15.126 3.969 20.527 4.194l7.256 7.301c-1.843.093-3.792.158-5.818.172-5.925.033-13.538-1.619-21.965-3.946V.01zm22.474 28.52c8.108-.053 14.594-.842 20.178-2.066l6.12 6.156c-6.984 1.922-15.287 3.277-26.259 3.343-6.046.043-13.866-1.687-22.512-4.101v-7.73c8.89 2.542 16.825 4.426 22.473 4.398zm-.812 26.891c19.354-.106 29.437-4.382 40.12-8.895.183-.078.38-.171.576-.237l5.649 5.683c-1.112.461-2.236.934-3.361 1.408-10.88 4.605-22.127 9.368-42.945 9.501-5.858.025-13.374-1.596-21.701-3.887v-7.725c8.556 2.425 16.18 4.188 21.662 4.152zm39.452 16.878c6.054-2.565 12.266-5.184 20.177-6.96l6.329 6.368c-9.571 1.5-16.437 4.408-23.63 7.461-10.88 4.605-22.14 9.355-42.958 9.487-5.694.033-12.969-1.506-21.033-3.703v-7.719c8.288 2.332 15.666 4.01 21.007 3.975 19.342-.119 29.438-4.383 40.108-8.909zm6.067 24.524c8.043-3.408 16.373-6.921 28.56-8.395 2.72-.316 5.361-.526 7.911-.592l7.506 7.552a80.71 80.71 0 0 0-14.541.421c-11.155 1.356-18.635 4.514-26.573 7.869-10.855 4.605-22.114 9.355-42.932 9.487-7.11.041-16.649-2.346-27.113-5.414v-7.76c10.725 3.201 20.446 5.769 27.061 5.727 19.355-.106 29.438-4.383 40.121-8.895zm65.816 20.534l7.008 10.656c-6.461-3.026-22.139-8.906-42.435-6.458-11.154 1.356-18.634 4.514-26.559 7.856-10.879 4.605-22.126 9.368-42.945 9.501-7.326.042-17.229-2.509-28.066-5.718v-7.762c11.098 3.329 21.214 6.066 28.013 6.033 19.368-.119 29.45-4.395 40.135-8.908 8.043-3.408 16.346-6.921 28.533-8.395 14.896-1.804 27.45.459 36.316 3.195zm-5.075 22.813l-6.29 6.329a80.826 80.826 0 0 0-23.709-.67c-11.154 1.355-18.648 4.526-26.559 7.881-10.879 4.605-22.139 9.356-42.945 9.475-7.394.053-17.44-2.544-28.418-5.798v-7.767c11.241 3.383 21.498 6.176 28.379 6.131 19.341-.119 29.437-4.382 40.107-8.908 8.056-3.395 16.373-6.921 28.56-8.396a87.926 87.926 0 0 1 30.875 1.723zm-35.218 25.196a85.856 85.856 0 0 1 10.803-.632l-7.743 7.789c-.718.066-1.451.144-2.196.237-11.141 1.343-18.635 4.514-26.547 7.869-10.88 4.605-22.14 9.355-42.958 9.487-6.399.037-14.793-1.908-24.062-4.546v-7.744c9.514 2.774 18.05 4.879 24.023 4.831 19.354-.106 29.449-4.369 40.121-8.895 8.042-3.409 16.371-6.922 28.559-8.396zm-31.805 34.708c3.858-1.618 7.795-3.29 12.188-4.737l-13.117 13.197c-9.807 4.053-20.726 7.802-39.152 7.895-5.643.032-12.841-1.48-20.818-3.646v-7.715c8.2 2.302 15.493 3.953 20.779 3.928 19.355-.133 29.451-4.396 40.12-8.922zm-38.211 32.708c5.361-.026 10.004-.382 14.149-.974l-8.186 8.236c-1.883.105-3.858.171-5.911.185-6.106.035-14.005-1.723-22.739-4.162v-7.737c8.975 2.576 16.984 4.489 22.687 4.452zM-.003 252.455c4.636 1.34 9.037 2.515 12.997 3.338l-6.16 6.197a201.892 201.892 0 0 1-6.837-1.816v-7.719z"/></svg>