<svg xmlns="http://www.w3.org/2000/svg" width="122" height="44" viewBox="0 0 122 44"><path fill="#FFA524" d="M111.966 33.558h-.01c-3.65 0-7.065 1.501-9.62 4.221-1.962 2.095-4.576 3.247-7.356 3.247h-.005c-2.78 0-5.389-1.152-7.354-3.247-2.553-2.721-5.963-4.221-9.61-4.221h-.008c-3.652 0-7.065 1.501-9.618 4.221-1.97 2.095-4.584 3.247-7.367 3.247-2.785 0-5.393-1.152-7.364-3.247-5.1-5.442-14.14-5.442-19.245 0-1.965 2.095-4.578 3.247-7.364 3.247h-.004c-2.784 0-5.398-1.152-7.359-3.247-2.556-2.721-5.972-4.221-9.621-4.221h-.009c-3.651 0-7.066 1.501-9.622 4.221a1.446 1.446 0 0 0 .1 2.091 1.56 1.56 0 0 0 2.158-.094c1.971-2.1 4.584-3.253 7.364-3.253h.009c2.784 0 5.393 1.152 7.357 3.253 2.554 2.721 5.968 4.217 9.623 4.217h.004c3.652 0 7.07-1.497 9.623-4.217 3.94-4.196 10.794-4.196 14.726 0 2.557 2.721 5.972 4.217 9.623 4.217 3.654 0 7.07-1.497 9.621-4.217 1.971-2.1 4.585-3.253 7.368-3.253h.004c2.776 0 5.386 1.157 7.346 3.253 2.552 2.721 5.962 4.217 9.618 4.217h.005c3.646 0 7.066-1.497 9.612-4.217 1.971-2.1 4.585-3.253 7.369-3.253h.005c2.776 0 5.388 1.157 7.345 3.248a1.56 1.56 0 0 0 2.158.102c.626-.548.67-1.487.105-2.095-2.547-2.72-5.958-4.22-9.607-4.22zM2.688 6.22c1.971-2.096 4.584-3.248 7.364-3.248h.009c2.784 0 5.393 1.152 7.357 3.248 2.554 2.721 5.968 4.217 9.623 4.217h.004c3.652 0 7.07-1.497 9.623-4.217 3.94-4.192 10.794-4.192 14.726 0 2.557 2.721 5.972 4.217 9.623 4.217 3.654 0 7.07-1.497 9.621-4.217 1.971-2.096 4.585-3.248 7.368-3.248h.004c2.776 0 5.386 1.157 7.346 3.248 2.552 2.721 5.962 4.217 9.618 4.217h.005c3.646 0 7.066-1.497 9.612-4.217 1.971-2.096 4.585-3.248 7.369-3.248h.005c2.776 0 5.388 1.157 7.345 3.248a1.57 1.57 0 0 0 2.158.103 1.46 1.46 0 0 0 .105-2.1c-2.548-2.72-5.959-4.217-9.608-4.217h-.01c-3.65 0-7.065 1.497-9.62 4.217-1.962 2.1-4.576 3.247-7.356 3.247h-.005c-2.78 0-5.389-1.147-7.354-3.247-2.553-2.72-5.963-4.217-9.61-4.217h-.008c-3.652 0-7.065 1.497-9.618 4.217-1.97 2.1-4.584 3.247-7.367 3.247-2.785 0-5.393-1.147-7.364-3.247-5.1-5.441-14.14-5.441-19.245 0-1.965 2.1-4.578 3.247-7.364 3.247h-.004c-2.784 0-5.398-1.147-7.359-3.247C17.125 1.503 13.709.006 10.06.006h-.009C6.4.006 2.985 1.503.429 4.223a1.452 1.452 0 0 0 .1 2.096 1.563 1.563 0 0 0 2.159-.099zm109.278 10.832h-.01c-3.65 0-7.065 1.5-9.62 4.221-1.962 2.096-4.576 3.252-7.356 3.252h-.005c-2.78 0-5.389-1.156-7.354-3.248-2.553-2.72-5.963-4.225-9.61-4.225h-.008c-3.652 0-7.065 1.5-9.618 4.221-1.97 2.096-4.584 3.252-7.367 3.252-2.785 0-5.393-1.156-7.364-3.252-5.1-5.441-14.14-5.441-19.245 0-1.965 2.096-4.578 3.252-7.364 3.252h-.004c-2.784 0-5.398-1.156-7.359-3.252-2.556-2.72-5.972-4.221-9.621-4.221h-.009c-3.651 0-7.066 1.5-9.622 4.221a1.452 1.452 0 0 0 .1 2.096 1.56 1.56 0 0 0 2.158-.098c1.971-2.096 4.584-3.252 7.364-3.252h.009c2.784 0 5.393 1.156 7.357 3.252 2.554 2.721 5.968 4.222 9.623 4.222h.004c3.652 0 7.07-1.501 9.623-4.222 3.94-4.195 10.794-4.195 14.726 0 2.557 2.721 5.972 4.222 9.623 4.222 3.654 0 7.07-1.501 9.621-4.222 1.971-2.096 4.585-3.252 7.368-3.252h.004c2.776 0 5.386 1.156 7.346 3.252 2.552 2.721 5.962 4.222 9.618 4.222h.005c3.646 0 7.066-1.501 9.612-4.222 1.971-2.096 4.585-3.252 7.369-3.252h.005c2.776 0 5.388 1.156 7.345 3.248.568.612 1.537.65 2.158.102.626-.548.67-1.487.105-2.091-2.547-2.721-5.958-4.226-9.607-4.226z"/></svg>