<svg xmlns="http://www.w3.org/2000/svg" width="490" height="490" viewBox="0 0 490 490"><path fill-rule="evenodd" clip-rule="evenodd" fill="#A99271" d="M88.794 82.44c13.601-4.993 27.678-10.17 41.624-10.21 12.552-.039 25.537 4.837 38.089 9.541 12.052 4.546 24.526 9.223 36.079 9.237 11.921.014 25.407-4.808 38.445-9.471 13.616-4.874 27.679-9.907 40.954-9.959 13.906-.052 27.141 5.417 39.93 10.7 12.499 5.153 24.289 10.015 36.42 10.055 14.379.054 28.784-4.979 42.716-9.827 6.763-2.362 13.641-4.758 20.608-6.62a247.455 247.455 0 0 1 5.706 6.233c-7.832 1.83-15.721 4.579-23.869 7.423-14.512 5.058-29.534 10.288-45.187 10.248-13.591-.053-26.617-5.416-39.221-10.621-12.682-5.231-24.656-10.172-37.091-10.147-11.986.052-25.445 4.874-38.469 9.525-13.63 4.888-27.732 9.933-40.954 9.906-12.895-.013-25.998-4.928-38.682-9.685-12.46-4.691-24.237-9.118-35.448-9.079-12.644.026-26.077 4.979-39.087 9.748-13.249 4.874-26.944 9.907-40.126 9.893-.388 0-.777-.022-1.166-.033a245.138 245.138 0 0 1 5.89-7.644c10.441-.983 21.367-4.992 32.839-9.213zM51.793 370.952c11.855.001 24.342-4.584 37.55-9.445 13.603-4.993 27.68-10.171 41.625-10.209 12.552-.039 25.537 4.836 38.09 9.54 12.065 4.533 24.525 9.224 36.078 9.237 11.921.014 25.407-4.808 38.444-9.471 13.617-4.875 27.68-9.907 40.955-9.959 13.906-.052 27.141 5.417 39.943 10.688 12.486 5.165 24.275 10.027 36.407 10.067 14.379.054 28.785-4.979 42.703-9.84 14.011-4.874 28.481-9.946 43.241-10.037 6.33-.038 12.552 1.107 18.673 2.838a247.807 247.807 0 0 1-3.503 6.78c-5.056-1.337-10.113-2.189-15.116-2.161-13.525.092-26.799 4.729-40.85 9.617-14.496 5.072-29.519 10.302-45.172 10.261-13.591-.053-26.616-5.416-39.221-10.621-12.683-5.231-24.657-10.172-37.091-10.147-11.987.053-25.445 4.874-38.47 9.525-13.629 4.888-27.732 9.933-40.954 9.906-12.893-.014-25.997-4.928-38.681-9.686-12.473-4.704-24.237-9.119-35.448-9.079-12.644.026-26.09 4.966-39.088 9.748-13.249 4.875-26.944 9.907-40.126 9.893-3.676-.004-7.365-.499-11.053-1.318a244.936 244.936 0 0 1-5.663-9.316c5.709 1.9 11.341 3.183 16.727 3.189zm78.597 4.668c12.579-.039 25.538 4.836 38.103 9.554 12.053 4.52 24.527 9.198 36.067 9.225 11.933.026 25.405-4.809 38.456-9.485 13.603-4.861 27.68-9.906 40.941-9.945 13.906-.052 27.142 5.416 39.957 10.7 12.486 5.139 24.263 10.014 36.42 10.054 14.366.04 28.783-4.979 42.702-9.84 13.998-4.888 28.468-9.934 43.229-10.025a55.38 55.38 0 0 1 6.879.407 246.988 246.988 0 0 1-4.677 7.088 44.011 44.011 0 0 0-2.148-.037c-13.538.079-26.799 4.702-40.836 9.603-14.522 5.073-29.532 10.316-45.173 10.262-13.603-.039-26.628-5.429-39.221-10.62-12.696-5.244-24.67-10.186-37.104-10.134-11.987.026-25.459 4.861-38.47 9.525-13.643 4.874-27.745 9.92-40.954 9.906-12.894-.014-25.999-4.954-38.682-9.712-12.474-4.677-24.25-9.105-35.46-9.066-12.631.039-26.077 4.979-39.075 9.761-10.6 3.893-21.504 7.898-32.198 9.334a245.633 245.633 0 0 1-5.61-6.965c11.166-.515 22.89-4.819 35.258-9.379 13.601-4.995 27.652-10.172 41.596-10.211zm-40.781 37.166c13.59-5.006 27.666-10.183 41.611-10.222 12.551-.039 25.537 4.837 38.09 9.54 12.065 4.533 24.526 9.224 36.079 9.238 11.92.014 25.406-4.808 38.443-9.471 13.617-4.874 27.68-9.906 40.955-9.959 13.905-.052 27.142 5.416 39.944 10.687 12.485 5.165 24.275 10.028 36.407 10.068 14.379.053 28.783-4.979 42.715-9.827 9.305-3.249 18.827-6.565 28.501-8.456a246.095 246.095 0 0 1-8.86 9.822c-5.646 1.638-11.353 3.626-17.197 5.67-14.509 5.059-29.532 10.289-45.186 10.249-13.59-.053-26.615-5.416-39.22-10.621-12.683-5.231-24.657-10.172-37.091-10.146-11.987.052-25.445 4.874-38.47 9.524-13.63 4.887-27.732 9.933-40.954 9.906-12.894-.014-25.998-4.929-38.669-9.699-12.473-4.677-24.249-9.105-35.461-9.066-12.644.026-26.076 4.979-39.087 9.749-4.049 1.49-8.141 2.993-12.247 4.364a243.368 243.368 0 0 1-6.076-5.859c5.141-1.596 10.395-3.519 15.773-5.491zm80.359 25.142c12.065 4.533 24.539 9.211 36.092 9.224 11.921.014 25.406-4.807 38.444-9.471 13.616-4.875 27.679-9.907 40.941-9.946 13.905-.052 27.155 5.403 39.944 10.687 12.499 5.152 24.288 10.014 36.42 10.055 9.431.035 18.872-2.123 28.184-4.976a245.047 245.047 0 0 1-17.663 11.702c-3.484.468-6.998.74-10.546.731-13.59-.053-26.616-5.416-39.221-10.621-12.683-5.231-24.657-10.173-37.091-10.147-11.987.053-25.445 4.874-38.469 9.525-13.631 4.888-27.733 9.933-40.969 9.92-12.88-.027-25.984-4.942-38.667-9.699-12.46-4.69-24.25-9.104-35.448-9.079-9.767.03-19.986 2.981-30.116 6.523a244.468 244.468 0 0 1-7.045-5.399c12.189-4.433 24.703-8.535 37.134-8.581 12.565-.027 25.537 4.835 38.076 9.552zm115.044 38.57c8.758-.025 17.246 2.133 25.526 5.048a242.766 242.766 0 0 1-14.791 3.523c-3.552-.71-7.112-1.126-10.708-1.114-8.749.038-18.29 2.613-27.865 5.813-3.481.147-6.977.239-10.494.239-3.973 0-7.922-.103-11.848-.291a615.274 615.274 0 0 0 9.24-3.247c13.603-4.887 27.693-9.919 40.94-9.971zm-154.014-22.985c12.552-.039 25.538 4.837 38.09 9.541 12.052 4.546 24.526 9.224 36.079 9.238 11.921.013 25.405-4.808 38.444-9.472 13.603-4.888 27.68-9.906 40.941-9.972 13.919-.039 27.155 5.429 39.956 10.7 6.157 2.547 12.145 5.018 18.088 6.876a242.471 242.471 0 0 1-10.517 4.207c-3.503-1.332-6.973-2.76-10.41-4.179-12.683-5.231-24.67-10.186-37.091-10.146-11.987.052-25.445 4.874-38.47 9.524-13.629 4.887-27.732 9.933-40.954 9.906-12.894-.014-25.998-4.929-38.682-9.686-12.427-4.687-24.161-9.096-35.336-9.09a243.714 243.714 0 0 1-11.233-6.426c3.701-.632 7.403-1.011 11.095-1.021zM447.673 130.11c-13.538.079-26.799 4.703-40.848 9.616-14.51 5.059-29.52 10.302-45.161 10.249-13.603-.04-26.629-5.429-39.233-10.608-12.697-5.245-24.671-10.186-37.092-10.147-12 .039-25.458 4.86-38.469 9.524-13.643 4.875-27.745 9.92-40.955 9.907-12.893-.014-26.01-4.942-38.681-9.712-12.474-4.678-24.251-9.106-35.462-9.066-12.63.039-26.076 4.979-39.075 9.761-13.249 4.874-26.943 9.907-40.126 9.893-9.346-.011-18.783-3.139-28.073-6.953a241.733 241.733 0 0 1 3.223-6.733c8.454 3.443 16.919 6.219 24.849 6.229 11.869.014 24.356-4.571 37.564-9.432 13.59-5.006 27.667-10.183 41.611-10.222 12.565-.026 25.538 4.837 38.09 9.54 12.065 4.533 24.525 9.224 36.078 9.237 11.935.027 25.407-4.807 38.445-9.471 13.616-4.874 27.692-9.92 40.954-9.959 13.906-.052 27.141 5.416 39.956 10.7 12.473 5.152 24.263 10.015 36.407 10.068 14.379.027 28.784-4.979 42.703-9.841 13.997-4.887 28.481-9.946 43.241-10.037 3.914-.023 7.786.41 11.618 1.146a244.828 244.828 0 0 1 4.767 8.796c-5.463-1.525-10.929-2.521-16.331-2.485zm-84.105-3.969c-13.59-.053-26.615-5.416-39.22-10.621-12.683-5.231-24.657-10.172-37.091-10.12-11.987.026-25.445 4.847-38.47 9.497-13.63 4.888-27.732 9.933-40.968 9.92-12.88-.027-25.985-4.942-38.668-9.699-12.459-4.691-24.249-9.105-35.447-9.079-12.658.039-26.09 4.993-39.076 9.762-13.26 4.861-26.956 9.893-40.126 9.893-6.438-.014-12.918-1.503-19.361-3.666a243.956 243.956 0 0 1 3.949-6.559c5.257 1.662 10.44 2.761 15.412 2.768 11.842.014 24.327-4.571 37.563-9.432 13.59-5.006 27.653-10.17 41.611-10.222 12.552-.039 25.538 4.836 38.076 9.554 12.066 4.533 24.539 9.21 36.092 9.224 11.921.014 25.405-4.808 38.444-9.471 13.602-4.861 27.679-9.907 40.94-9.946 13.906-.052 27.155 5.403 39.944 10.687 12.499 5.152 24.289 10.014 36.421 10.054 14.379.054 28.783-4.979 42.715-9.827 11.986-4.185 24.32-8.476 36.892-9.691a245.998 245.998 0 0 1 5.077 7.135c-13.084.38-25.941 4.85-39.524 9.593-14.522 5.069-29.518 10.299-45.185 10.246zm37.549-63.57c-14.51 5.058-29.52 10.302-45.174 10.262-13.59-.054-26.615-5.417-39.219-10.621-12.684-5.231-24.671-10.185-37.092-10.147-11.986.052-25.445 4.874-38.469 9.524-13.631 4.887-27.733 9.933-40.955 9.906-12.894-.014-25.997-4.928-38.681-9.685-12.474-4.704-24.263-9.118-35.449-9.08-12.656.04-26.088 4.967-39.088 9.749a912.18 912.18 0 0 1-5.802 2.117 246.104 246.104 0 0 1 16.248-13.728c9.467-3.129 19.066-5.559 28.616-5.594 12.552-.04 25.537 4.836 38.076 9.554 12.065 4.533 24.539 9.21 36.091 9.224 11.922.014 25.406-4.808 38.444-9.471 13.603-4.888 27.68-9.906 40.928-9.959 13.931-.052 27.167 5.416 39.956 10.7 12.499 5.152 24.289 10.014 36.42 10.054 14.379.053 28.784-4.979 42.703-9.84l2.177-.759a247.84 247.84 0 0 1 6.631 5.598c-2.104.717-4.223 1.452-6.361 2.196zm-44.821-14.073c-13.59-.027-26.615-5.417-39.219-10.621-12.684-5.231-24.657-10.173-37.092-10.12-11.986.026-25.459 4.861-38.482 9.511-13.631 4.888-27.733 9.933-40.942 9.92-12.907-.027-26.01-4.942-38.681-9.712-10.558-3.959-20.615-7.728-30.254-8.772a242.62 242.62 0 0 1 10.966-5.519c7.331 1.851 14.678 4.606 21.89 7.309 12.065 4.533 24.539 9.21 36.079 9.237 11.92.014 25.406-4.808 38.444-9.471 13.616-4.875 27.692-9.92 40.954-9.959 13.906-.052 27.141 5.416 39.944 10.687 12.486 5.165 24.276 10.027 36.42 10.054 7.128.027 14.258-1.195 21.337-3.024a244.011 244.011 0 0 1 8.17 5.448c-9.605 2.903-19.434 5.075-29.534 5.032zM304.874 6.917a242.3 242.3 0 0 1 43.209 15.01c-10.318-1.685-20.317-5.796-30.047-9.807-4.457-1.839-8.828-3.638-13.162-5.203zM201.52 21.402c-11.494-.012-23.165-3.931-34.54-8.16a242.394 242.394 0 0 1 11.777-3.737c7.735 2.543 15.442 4.445 22.777 4.453 11.92.014 25.405-4.808 38.43-9.485 4.278-1.531 8.601-3.078 12.929-4.481 8.786.22 17.455.913 25.988 2.039-11.457.546-24.135 5.068-36.405 9.466-13.644 4.874-27.734 9.933-40.956 9.905z"/></svg>