<svg xmlns="http://www.w3.org/2000/svg" width="18" height="19" viewBox="0 0 18 19"><path fill="#A99271" d="M16.086 12.539a4.128 4.128 0 0 1-.407-.342c-.824-.726-1.564-1.33-2.293-1.33-.728.035-1.2.604-1.542 1.024-.085.102-.162.205-.246.285l-.471.499a14.363 14.363 0 0 1-1.329-.876 12.063 12.063 0 0 1-1.64-1.34c-.492-.5-.932-1.046-1.307-1.614a17.599 17.599 0 0 1-.804-1.342c.269-.317.709-.852.891-1.136.493-.808 1.049-1.716.301-2.98-.239-.396-.515-.692-.826-1.021l-.193-.193c-.44-.444-.891-.897-1.457-1.331-.365-.295-.901-.738-1.447-.83-.237-.044-.525-.011-.653.058C1.12.706.273 2.923.092 4.263c-.634 4.571 2.753 8.458 5.71 10.926 3.054 2.534 5.677 3.819 7.779 3.819 1.381 0 2.549-.535 3.461-1.603.653-.729.963-1.433.944-2.092-.087-1.296-1.139-2.148-1.9-2.774zm-9.62 1.751C3.733 12.016.595 8.458 1.152 4.424c.182-1.309.942-2.899 1.982-3.286.3.046.718.398.964.602l.086.068c.46.341.889.772 1.296 1.195l.194.193c.257.272.493.524.663.807.365.614.203.921-.3 1.74-.15.238-.697.886-1.027 1.272-.184.249-.376.501.964 2.49.416.625.91 1.215 1.446 1.774a12.81 12.81 0 0 0 1.768 1.466c.021.012 1.554 1.16 2.057 1.16l.257-.012.857-.909c.097-.104.193-.215.29-.342.256-.306.514-.625.781-.635.354 0 1.168.727 1.565 1.069.173.147.333.284.45.374.633.522 1.413 1.16 1.467 1.932.013.318-.213.762-.652 1.25-1.951 2.274-5.273 1.42-9.794-2.342z"/></svg>