<svg xmlns="http://www.w3.org/2000/svg" width="13" height="22" viewBox="0 0 13 22"><path fill="#7C694D" d="M10.538 4.904h1.518c.511 0 .938-.451.938-.998V1.008c0-.56-.427-.998-.938-.998H8.821c-.689 0-4.163.193-5.113 4.067l-.03.066c-.083.33-.218 1.019-.281 2.145 0 .3-.01 1.149-.021 1.321v.322H.952c-.509 0-.947.461-.947.998v2.79c0 .536.438.998.947.998h2.685v8.286c0 .548.428.987.957.987h3.621a.97.97 0 0 0 .958-.987v-8.286h2.695c.52 0 .947-.451.947-.987V8.929c0-.547-.427-.998-.947-.998H9.174v-.753c-.011-.848-.011-.911.01-.976l-.01-.171c0-.333.135-1.127 1.364-1.127zM8.133 6.031l-.01.257.009 2.704h.052l3.58.055v2.575H8.165l-.032 9.273H4.699v-9.24h-.063l-3.579-.064V9.035h3.34v-.063c0-.796 0-2.266.041-2.749.053-1.009.188-1.567.261-1.803.748-3.08 3.34-3.316 4.122-3.316h3.121v2.691h-1.404C8.758 3.796 8.133 5 8.133 6.031z"/></svg>