<svg style="position: absolute; width: 0; height: 0; overflow: hidden;" version="1.1" xmlns="http://www.w3.org/2000/svg" xmlns:xlink="http://www.w3.org/1999/xlink">
<defs>
<symbol id="icon-menu" viewBox="0 0 32 32">
<title>menu</title>
<path d="M-0.083 0v1.882h32.166v-1.882h-32.166zM-0.083 16.941h32.166v-1.882h-32.166v1.882zM-0.083 32h32.166v-1.882h-32.166v1.882z"></path>
</symbol>
<symbol id="icon-phone" viewBox="0 0 30 32">
<title>phone</title>
<path d="M27.092 21.118c-0.195-0.133-0.431-0.344-0.685-0.576-1.388-1.223-2.634-2.24-3.862-2.24-1.226 0.059-2.021 1.017-2.597 1.725-0.143 0.172-0.273 0.345-0.414 0.48l-0.793 0.84c-0.65-0.362-1.88-1.187-2.238-1.475-1.063-0.726-1.984-1.494-2.762-2.257-0.829-0.842-1.57-1.762-2.201-2.718-0.251-0.365-1.009-1.587-1.354-2.26 0.453-0.534 1.194-1.435 1.501-1.913 0.83-1.361 1.767-2.89 0.507-5.019-0.403-0.667-0.867-1.165-1.391-1.72l-0.325-0.325c-0.741-0.748-1.501-1.511-2.454-2.242-0.615-0.497-1.517-1.243-2.437-1.398-0.399-0.074-0.884-0.019-1.1 0.098-2.599 1.071-4.025 4.805-4.33 7.062-1.068 7.699 4.637 14.245 9.617 18.402 5.144 4.268 9.561 6.432 13.101 6.432 2.326 0 4.293-0.901 5.829-2.7 1.1-1.228 1.622-2.413 1.59-3.523-0.147-2.183-1.918-3.618-3.2-4.672zM10.89 24.067c-4.603-3.83-9.888-9.822-8.95-16.616 0.307-2.205 1.587-4.883 3.338-5.534 0.505 0.077 1.209 0.67 1.624 1.014l0.145 0.115c0.775 0.574 1.497 1.3 2.183 2.013l0.327 0.325c0.433 0.458 0.83 0.883 1.117 1.359 0.615 1.034 0.342 1.551-0.505 2.931-0.253 0.401-1.174 1.492-1.73 2.142-0.31 0.419-0.633 0.844 1.624 4.194 0.701 1.053 1.533 2.046 2.435 2.988 0.849 0.859 1.858 1.686 2.978 2.469 0.035 0.020 2.617 1.954 3.464 1.954l0.433-0.020 1.443-1.531c0.163-0.175 0.325-0.362 0.488-0.576 0.431-0.515 0.866-1.053 1.315-1.069 0.596 0 1.967 1.224 2.636 1.8 0.291 0.248 0.561 0.478 0.758 0.63 1.066 0.879 2.38 1.954 2.471 3.254 0.022 0.536-0.359 1.283-1.098 2.105-3.286 3.83-8.881 2.392-16.495-3.944z"></path>
</symbol>
<symbol id="icon-fb-o" viewBox="0 0 19 32">
<title>fb-o</title>
<path d="M15.328 7.133h2.208c0.743 0 1.364-0.656 1.364-1.452v-4.215c0-0.815-0.621-1.452-1.364-1.452h-4.705c-1.002 0-6.055 0.281-7.437 5.916l-0.044 0.096c-0.121 0.48-0.317 1.482-0.409 3.12 0 0.436-0.015 1.671-0.031 1.921v0.468h-3.526c-0.74 0-1.377 0.671-1.377 1.452v4.058c0 0.78 0.637 1.452 1.377 1.452h3.905v12.052c0 0.797 0.623 1.436 1.392 1.436h5.267c0.774 0 1.393-0.639 1.393-1.436v-12.052h3.92c0.756 0 1.377-0.656 1.377-1.436v-4.074c0-0.796-0.621-1.452-1.377-1.452h-3.919v-1.095c-0.016-1.233-0.016-1.325 0.015-1.42l-0.015-0.249c0-0.484 0.196-1.639 1.984-1.639zM11.83 8.772l-0.015 0.374 0.013 3.933h0.076l5.207 0.080v3.745h-5.235l-0.047 13.488h-4.995v-13.44h-0.092l-5.206-0.093v-3.718h4.858v-0.092c0-1.158 0-3.296 0.060-3.999 0.077-1.468 0.273-2.279 0.38-2.623 1.088-4.48 4.858-4.823 5.996-4.823h4.54v3.914h-2.042c-2.589 0.001-3.498 1.753-3.498 3.252z"></path>
</symbol>
<symbol id="icon-arrow-r" viewBox="0 0 55 32">
<title>arrow-r</title>
<path d="M54.848 15.794l0.014-0.009-0.014-0.014v-3.365h-3.365l-0.014-0.014-0.009 0.014h-0.238l-12.402-12.407-3.227 3.232 9.166 9.175h-44.763v4.571h46.889l-10.295 10.299 3.392 3.387 13.687-13.687h1.179z"></path>
</symbol>
<symbol id="icon-arrow-l" viewBox="0 0 64 32">
<title>arrow-l</title>
<path d="M64.044 18.417v-4.898h-60.591v4.901h60.591z"></path>
<path d="M22.208 3.618l-4.113-3.655-18.053 16.039 4.116 3.655 18.050-16.039z"></path>
<path d="M22.193 28.389l-4.113 3.648-18.050-16.010 4.116-3.648 18.048 16.010z"></path>
</symbol>
<symbol id="icon-cross" viewBox="0 0 32 32">
<title>cross</title>
<path d="M0.911 1.193l1.353-1.184 29.724 30.743-1.391 1.239-29.687-30.797z"></path>
<path d="M31.031 1.502l-1.395-1.178-29.624 30.488 1.395 1.178 29.624-30.488z"></path>
</symbol>
</defs>
</svg>
